<svg xmlns="http://www.w3.org/2000/svg" width="132.492" height="25" viewBox="0 0 162.492 25">
  <path id="_3c88dbdf1c4b6f9e14b81a26ec7d7c18" data-name="3c88dbdf1c4b6f9e14b81a26ec7d7c18" d="M28.2,12.47a1.228,1.228,0,0,0-1.048-1.441L19.687,9.981,16.281,3.168a1.023,1.023,0,0,0-.524-.524,1.326,1.326,0,0,0-1.834.524L10.647,9.981,3.179,11.029a.792.792,0,0,0-.786.393,1.266,1.266,0,0,0,0,1.834L7.765,18.5l-1.31,7.468a1.662,1.662,0,0,0,.131.786,1.326,1.326,0,0,0,1.834.524L15.1,23.737l6.682,3.537a.982.982,0,0,0,.655.131H22.7a1.359,1.359,0,0,0,1.048-1.572l-1.31-7.468,5.372-5.241A.72.72,0,0,0,28.2,12.47Z" transform="translate(-2 -2.459)" fill="#f3b664"/>
  <path id="_3c88dbdf1c4b6f9e14b81a26ec7d7c18-2" data-name="3c88dbdf1c4b6f9e14b81a26ec7d7c18" d="M28.2,12.47a1.228,1.228,0,0,0-1.048-1.441L19.687,9.981,16.281,3.168a1.023,1.023,0,0,0-.524-.524,1.326,1.326,0,0,0-1.834.524L10.647,9.981,3.179,11.029a.792.792,0,0,0-.786.393,1.266,1.266,0,0,0,0,1.834L7.765,18.5l-1.31,7.468a1.662,1.662,0,0,0,.131.786,1.326,1.326,0,0,0,1.834.524L15.1,23.737l6.682,3.537a.982.982,0,0,0,.655.131H22.7a1.359,1.359,0,0,0,1.048-1.572l-1.31-7.468,5.372-5.241A.72.72,0,0,0,28.2,12.47Z" transform="translate(33.423 -2.459)" fill="#f3b664"/>
  <path id="_3c88dbdf1c4b6f9e14b81a26ec7d7c18-3" data-name="3c88dbdf1c4b6f9e14b81a26ec7d7c18" d="M28.2,12.47a1.228,1.228,0,0,0-1.048-1.441L19.687,9.981,16.281,3.168a1.023,1.023,0,0,0-.524-.524,1.326,1.326,0,0,0-1.834.524L10.647,9.981,3.179,11.029a.792.792,0,0,0-.786.393,1.266,1.266,0,0,0,0,1.834L7.765,18.5l-1.31,7.468a1.662,1.662,0,0,0,.131.786,1.326,1.326,0,0,0,1.834.524L15.1,23.737l6.682,3.537a.982.982,0,0,0,.655.131H22.7a1.359,1.359,0,0,0,1.048-1.572l-1.31-7.468,5.372-5.241A.72.72,0,0,0,28.2,12.47Z" transform="translate(68.846 -2.459)" fill="#f3b664"/>
  <path id="_3c88dbdf1c4b6f9e14b81a26ec7d7c18-4" data-name="3c88dbdf1c4b6f9e14b81a26ec7d7c18" d="M28.2,12.47a1.228,1.228,0,0,0-1.048-1.441L19.687,9.981,16.281,3.168a1.023,1.023,0,0,0-.524-.524,1.326,1.326,0,0,0-1.834.524L10.647,9.981,3.179,11.029a.792.792,0,0,0-.786.393,1.266,1.266,0,0,0,0,1.834L7.765,18.5l-1.31,7.468a1.662,1.662,0,0,0,.131.786,1.326,1.326,0,0,0,1.834.524L15.1,23.737l6.682,3.537a.982.982,0,0,0,.655.131H22.7a1.359,1.359,0,0,0,1.048-1.572l-1.31-7.468,5.372-5.241A.72.72,0,0,0,28.2,12.47Z" transform="translate(104.269 -2.459)" fill="#f3b664"/>
</svg>
