<svg xmlns="http://www.w3.org/2000/svg" width="440.568" height="346.125" viewBox="0 0 440.568 346.125">
  <path id="path66" d="M730.35,677.23c-1.9.2-4.849-1.1-5.716.6-.977,1.914,3.021,3.974,2.341,6.013-.94,2.815-4.282,4.15-6.425,6.227-1.834-.607-4.2-.4-5.5-1.815-1.673-1.819-.962-5.054-2.552-6.942a15.031,15.031,0,0,0-7.243-4.688c-3.053-.863-6.581,1.107-9.533-.055-5.932-2.334-10.14-8.2-16.229-10.091-2.943-.916-5.958,2.833-8.985,2.232-2.6-.515-3.979-6.932-5.974-5.205-3.441,2.977.126,10.18-3.273,13.2-2.483,2.208-6.617-2.088-9.9-1.482-4.213.779-8.38,8.254-11.628,5.471-4.268-3.657,2.679-12.978-1.51-16.72-4.724-4.219-12.971.386-19.007-1.6-1.494-.492,1.231-3.789-.055-4.682-2.651-1.839-6.274-1.932-9.513-1.952-1.9-.011-4.47.2-5.406,1.852a29.094,29.094,0,0,0-3.706,14.192c.012,7.406,3.863,14.506,3.765,21.916-.044,3.322-3.914,5.754-4.19,9.068-.294,3.526,3.125,6.816,2.574,10.314-.842,5.352-6.4,9.487-6.556,14.9-.087,3.005,5.786,3.856,5.912,6.861.106,2.506-2.879,5.43-5.4,5.288-6.268-.353-8.873-2.708-11.533-3.707-6.193-2.328-14.009-6.044-19.689-2.667-4.148,2.467,2.378,10.234-.023,14.4-2.972,5.159-10.309,6.331-14.419,10.655-2.073,2.18-2.35,5.538-3.567,8.293s-.138,22.227-.363,23.659a9.124,9.124,0,0,1-4.387,6.336c-2.33,1.26-5.845,1.931-7.964.341-2.576-1.932-1.136-6.81-3.53-8.956-1.279-1.147-3.618,2.292-5.021,1.292-2.111-1.5-.535-7.255-3.125-7.09-4.32.277-5.972,7.231-10.248,7.938s-8.8-1.684-12.316-4.211c-3.4-2.445-4.038-7.705-7.514-10.041-1.551-1.042-4.841-.441-5.477,1.312-.766,2.112,3.113,3.941,2.761,6.161-.669,4.212-2.072,9.074-5.578,11.547-2.344,1.653-6.006-3.08-8.478-1.625-2.066,1.216.967,5.541-.839,7.118-1.56,1.361-4.317-1.962-6.158-1.007-2.815,1.46-3.168,5.958-6.028,7.334-1.21.581-.3-2.983-1.393-3.76-3.487-2.486-7.4-4.764-11.621-5.526-14.381-2.6-29.276-1.685-43.622-4.455-1.288-.249,1.424-2.926.527-3.871-1.432-1.508-4.783-.179-5.984-1.873-.936-1.321,2.31-3.368,1.343-4.661-1.807-2.415-8.445-1.285-8.027-4.266.466-3.321,6.85-1.8,9.22-4.188,1.545-1.555,2.369-4.5,1.328-6.425-.855-1.579-4.036.271-5.337-.972-2.7-2.584-2.73-7.393-5.733-9.62-2.914-2.162-7.73-.328-10.622-2.52-5.289-4.008-5.857-6.807-8.933-9.485s-5.517-6.327-9.227-8.033c-3.8-1.749-9.727,1.251-12.433-1.927-4.026-4.728-1.647-12.545-4.556-18.023-.945-1.78-4.76.065-5.872-1.621-3.128-4.743-1.192-12.628-5.767-16.015-3.8-2.812-10.661,4.4-14.183,1.247-5.728-5.129-4.039-15.079-8.351-21.428-.956-1.408-2.866,3.865-4.255,2.87-3.328-2.386-3.111-7.987-6.359-10.477-1.489-1.141-2.989,1.087-6.131.9-.576-5.353-2.509-10.729-1.733-16.05a18.851,18.851,0,0,1,5.621-10.52c.913-.876,2.094,2.687,3.2,2.066,2.419-1.357,5.072-3.9,4.956-6.649-.2-4.714-5.138-8.271-5.778-12.944-.187-1.366,3.583-.395,3.772-1.756.532-3.836-4.386-8.454-1.932-11.461,1.933-2.367,5.64,4.066,8.6,3.277,3.168-.843,3.629-5.779,6.519-7.312,1.964-1.041,5.262,2.013,6.672.306,1.817-2.2-1.172-6,.12-8.529,1.043-2.046,6.006-1.164,5.99-3.453-.029-4.125-6.764-6.737-6.086-10.8.7-4.177,7.7-4.784,9.34-8.688.71-1.69-4.187.9-5.537-.358-1.68-1.561-3.2-4.674-1.94-6.584s5.773,1.162,6.853-.85c1.522-2.838-2.919-6.8-1.269-9.558,1.71-2.858,6.876-1.521,9.282-3.832,2.446-2.349,4.527-5.831,4.279-9.194-.437-5.925-4.943-10.925-6.18-16.736a8.069,8.069,0,0,1,1.36-5.911c1.215-1.808,5.309-1.753,5.245-3.92-.077-2.636-4.835-3.167-5.521-5.715-.884-3.287,2.161-6.853,1.25-10.127-.386-1.386-4.208.674-4.284-.761-.167-3.162,2.522-5.816,3.781-8.723l-.1.378c4.109-1.453,7.975-4.6,12.324-4.356,2.125.117,1.471,5.155,3.6,5.248,2.382.1,2.848-4.678,5.222-4.852,2.7-.2,5.382,1.87,7.1,3.95.638.774-2.772,1.786-1.923,2.329,2.405,1.536,5.675,2.691,8.4,1.808,2.2-.713,1.651-4.911,3.795-5.764,3.267-1.3,7.826,2.228,10.564.037,2.8-2.245-.011-7.836,2.441-10.451s7.176-4.914,10.352-3.207c2.842,1.527-.164,6.729,1.412,9.531.83,1.475,3.15,1.6,4.853,1.6,8.285.016,17.1,1.452,24.816-1.537,3.251-1.259,1.45-7.223,3.966-9.617a8.7,8.7,0,0,1,8.259-2.012c3.169,1.123,4.01,5.583,6.851,7.374,1.973,1.244,5.2-.3,6.9,1.3,1.036.977-2.139,3.068-1.163,4.105a5.968,5.968,0,0,0,6.059,1.1c2.815-1.086,3.84-5.136,6.717-6.037,1.9-.6,4.237,3.655,5.567,2.185,1.58-1.747-3.619-7.2-1.272-6.928,4.992.576,7.766,6.842,12.59,8.243,1.424.414.322-3.515,1.688-4.091,1.675-.706,3.568.715,5.336,1.133,4.335,1.026,8.529,3.495,12.975,3.2,2.337-.153,3.765-6.013,5.45-4.4,1.82,1.74-4.6,5.406-2.682,7.045,3.189,2.731,8.611-.025,12.561,1.419,1.777.65,1.648,4.848,3.5,4.454,1.714-.363-.835-3.74.08-5.222a16.8,16.8,0,0,1,6.708-5.768c3.54-1.818,9.63-.014,11.414-3.547,2.1-4.166-3.122-9.089-2.687-13.725.128-1.367,3.135.174,4.067-.838,2.194-2.384,1.448-9.416,4.58-8.557,7.138,1.958,10.086,11.345,16.81,14.417,2.263,1.034,4.52-5.372,6.43-3.788,3.878,3.216,2.252,10.325,5.785,13.908,1.45,1.47,3.906-1.4,5.857-2.091l.072-.434c.912,2.665,4.064,5.509,2.736,7.995-1.432,2.681-8.149.066-8.642,3.062-.647,3.932,6.7,6.1,6.479,10.075-.672,12.01-9.091,22.935-9,34.964.028,3.749,8.327,2.8,9.309,6.416.776,2.86-5.376,3.9-5.713,6.844-.329,2.87,2.125,5.512,4.048,7.68,3.613,4.074,6.945,9.712,12.31,10.766,3.9.766,6.076-6.627,10.041-6.372,3.417.22,3.971,5.867,6.991,7.468,2.629,1.394,6.634-.975,8.891.955,1.57,1.343.782,5.161-.544,5.732-1.355.583-7.166-.193-5.414.182,3.481.745,7.7-.7,10.6,1.352,2.4,1.7.926,6.159,2.961,8.278a5.82,5.82,0,0,0,6.123,1.18c2.433-1.139,2.227-6.32,4.916-6.351,5.085-.059,9.79,3.229,13.95,6.13.87.606-1.81,3.128-.748,3.078,6.353-.3,13.435-7.527,18.663-3.935,4.508,3.1-3.3,11.547-.653,16.31,3.906,7.022,11.213,12.027,18.428,15.643,1.726.865,1.249-4.731,3.18-4.815,4.646-.2,8.684,4.333,13.328,4.1,3.608-.185,5.937-4.438,9.453-5.261,1.676-.393,4.133.346,4.79,1.926.682,1.64-2.918,3.5-1.92,4.969,1.469,2.164,5.336,1.232,7.3,2.962a6.766,6.766,0,0,1,2.344,5.523c-.253,2.04-1.674,4.376-3.651,4.991-2.218.69-5.249-3.518-6.748-1.755-2.381,2.8.463,7.609-1.061,10.948-.711,1.559-3.965.409-4.806,1.9-.68,1.208,2.3,2.669,1.57,3.849-2.336,3.781-8.966,4.853-9.653,9.236-.417,2.662,5.974-1.189,8.134.443,1.419,1.072-1.964,4.189-.559,5.28,3.507,2.724,9.034,1.623,12.691,4.144,1.534,1.058.8,3.621,1.2,5.432l.031.056Z" transform="translate(-293.985 -462.462)" fill="#c9c9c9" stroke="#fff" stroke-linejoin="bevel" stroke-width="2.589" fill-rule="evenodd"/>
</svg>
