<svg xmlns="http://www.w3.org/2000/svg" width="451.39" height="327.187" viewBox="0 0 451.39 327.187">
  <path id="path60" d="M1058.6,562.98c-1.95,3.375-6.138,6.243-5.849,10.125.472,6.31,6.627,11.09,7.888,17.295.392,1.932-5.19,4.064-3.381,4.867,3.542,1.573,9.234-4.307,11.574-1.229,2.626,3.456-.229,9.237-2.854,12.694-1.688,2.223-6.465-.334-8.2,1.858-1.887,2.384,1.3,6.634-.481,9.1-1.245,1.731-5.081-1.208-6.408.465-1.185,1.492,1.76,3.556,1.7,5.463-.036,1.221-2.943,2.378-1.96,3.111,1.967,1.466,4.941,1.487,7.323.882,4.963-1.261,8.915-6.893,14-6.314,3.143.357,3.907,5.284,4.348,8.4.5,3.566-3.432,7.562-1.634,10.684,1.13,1.962,4.266-3.489,6.324-2.536,2.953,1.368,2.491,6.864,5.532,8.024,4.141,1.58,8.874-1.325,13.283-.843,1.773.194,4.046,1.108,4.553,2.81.829,2.782-3.26,6.658-1.135,8.647,2.211,2.071,6.283-2.558,9.024-1.263,3.928,1.858,4.435,8.958,8.723,9.664,4.817.792,8.478-5.586,13.338-6.024,1.761-.159,1.079,3.757,2.636,4.591,2.412,1.292,6.575-1.051,8.135,1.19,1.589,2.281-3.626,6.274-1.6,8.181,3.47,3.265,10.328.269,13.914,3.4,5.056,4.418,6.659,11.646,9.989,17.469-8.214,4.9-15.122,13.665-24.644,14.7-6.519.711-10.25-10.375-16.8-10.2-5.228.142-6.745,8.218-11.2,10.955a7.367,7.367,0,0,1-7.146.328c-3.926-2.36-5.158-8.068-9.229-10.165-8.426-4.339-17.693-9.468-27.135-8.564-5.016.48-5.069,9.018-9.1,12.029-2.318,1.73-6.735-.992-8.618,1.2-3.846,4.482-4.007,12.405-3.695,13.142s1.5,1.652.933,2.212c-2.92,2.861-7.393,3.88-10.192,6.863-.77.82,1.239,2.377.631,3.326-2.881,4.5-8.563,7.157-10.526,12.129-1.006,2.547,3.358,5.131,2.662,7.78-.519,1.974-4.781.921-5.449,2.851-2.2,6.354-.663,13.545-2.472,20.019-.586,2.1-2.324,4.34-4.462,4.8-2.044.435-5.139-.614-5.7-2.62-1.413-5.034,1.4-10.516.554-15.676s-.642-12.856-5.559-14.718c-6.889-2.608-14.359,5.363-21.67,4.412-6.119-.8-9.986-7.868-15.985-9.322-3.092-.75-6.672,5.458-8.975,3.266-4.473-4.258-1.286-13.485-5.973-17.506-3.448-2.957-9.363,2.221-13.646.683-4.795-1.722-6.818-8.389-11.713-9.794-2.2-.631-2.294,4.865-4.568,5.108-9.419,1.007-10.47-6.74-11.746-3.377-1.747,4.6-2.551,9.685-5.243,13.814A57.2,57.2,0,0,1,898.6,744.206a3.676,3.676,0,0,1-3.979.241c-1.941-1.281-1.837-5.288-4.143-5.6-1.7-.232-.23,4.712-1.95,4.768-16.52.54-33.248-.079-49.5-3.1-8.063-1.5-15.264-6.151-22.36-10.246-3.857-2.226-7.912-4.787-10.238-8.571-.952-1.549,2.9-3.705,1.8-5.151-1-1.312-3.418,2.053-4.828,1.187-2.122-1.3-1.561-5.259-3.747-6.454-1.608-.879-3.792,2.549-5.3,1.507-2.3-1.594-1.227-6-3.509-7.612-2.147-1.522-5.792,1.091-7.9-.487-1.485-1.112,1.571-4.948-.182-5.553a17.661,17.661,0,0,0-12.884,1.035c-2.877,1.377-2.517,6.753-5.539,7.789a19.222,19.222,0,0,1-13.88-1.122c-6.349-2.984-10.181-9.947-16.431-13.129-5.868-2.986-14.056-2.724-15.887-3.332l9.788-12.867c1.863-1.245,3.414-4.266,5.587-3.729,3.252.8,3.966,7.439,7.274,6.918,2.979-.469.605-6.607,2.918-8.529a10.143,10.143,0,0,1,9.174-1.524c2.795.935,3.129,7.586,5.9,6.571,3.834-1.407,2.711-8.033,5.686-10.817,1.776-1.663,5.292.232,7.213-1.264,2.7-2.1,2.416-7.165,5.5-8.636,3.573-1.706,8.643,2.592,11.891.328,2.675-1.865-1.1-7.631,1.457-9.648,1.961-1.547,4.549,4.072,6.848,3.087,2.433-1.042,1.139-5.479,3.032-7.318,1.6-1.556,4.406-2.826,6.44-1.9,1.752.8.243,4.152,1.561,5.553a15.511,15.511,0,0,0,7.292,3.867,4.489,4.489,0,0,0,4.166-.741c1.574-1.59.422-5.989,2.655-6.153,4.076-.3,7.108,4.391,11.121,5.138,2.286.426,4.636-.821,6.741-1.8,2.166-1.007,5.159-1.814,5.889-4.078.624-1.938-4.568-4.373-2.822-5.427,4.67-2.82,11.506.174,16.177-2.638,2.427-1.461.135-6.06,1.914-8.26,1.193-1.476,4.279.306,5.61-1.045a17.8,17.8,0,0,0,4.908-9.643c.291-2-.728-4.971-2.7-5.449-2.071-.5-3.221,3.349-5.348,3.506-1.365.1,2.726-1.962,2.437-3.289-.506-2.318-5.447-3.5-4.39-5.625,1.833-3.683,7.942-3.346,10.472-6.586,1.19-1.524.542-4.387-.848-5.735-2.1-2.034-7.424-.264-8.233-3.069-1.251-4.337.872-9.441,3.575-13.061,1.518-2.033,7.382.842,7.443-1.691.084-3.443-7.383-3.994-7.221-7.437.206-4.337,6.108-6.381,8.071-10.255.606-1.2-1.94-3.108-.878-3.935,5.918-4.6,15.084-4.924,19.774-10.762,2.4-2.981-1.347-7.525-2.067-11.278-1-5.2-3.46-10.306-3.094-15.583.271-3.9,5.523-6.79,4.926-10.653-.578-3.739-7.147-4.512-7.852-8.228-.425-2.239,4.717,3.035,6.626,1.784,3.509-2.3,7.481-6.461,6.786-10.59-.7-4.155-8.471-3.947-9.91-7.907-1.2-3.316,2.266-6.682,3.4-10.022,1.233.94,2.5,3.807,3.7,2.824,2.006-1.648.591-5.332,2-7.5a3.442,3.442,0,0,1,3.716-1.314c1.338.519.856,3.721,2.288,3.64,3.193-.178,5.4-4.019,8.592-4.237,3.745-.258,7.867,5.135,10.882,2.908,3.392-2.505.086-8.72,2.03-12.45.778-1.5,3.284-.986,4.974-1,8.638-.084,17.405-.8,25.906.706,7.894,1.4,15.145,5.265,22.718,7.9-.734,2.8.553,7.478-2.2,8.411-3.46,1.172-7.384-6.657-10.113-4.234-3.571,3.172-4.733,11.064-1.18,14.256,5.08,4.564,13.623,1.54,20.315,2.943,1.587.332-3.766-.89-4.865.3-1.356,1.471.163,4.231-.884,5.934-.673,1.093-3.563.1-3.621,1.383a40.163,40.163,0,0,0,2.8,16.872c1.118,2.729,6.245,3.023,6.578,5.956.234,2.061-4.3,1.175-5.588,2.809-1.188,1.512-2.335,4.216-1.076,5.672,3.624,4.19,8.4,8.4,13.9,9.15,3.186.432,5.779-3.452,7.308-6.266,1.1-2.019-1.05-4.779-.154-6.892.638-1.506,4.2-.971,4.179-2.6-.042-3.5-2.131-6.847-4.319-9.587-2.158-2.7-11.221-4.344-8.317-6.229l9.651-6.267c2.466-1.6,6.466-.448,8.721,1.438,2.091,1.75.763,5.607,2.348,7.824,1.6,2.244,5.519,2.374,6.73,4.85,1.271,2.6-1.556,6.171-.118,8.684,1.107,1.933,4.9.487,6.342,2.183,2.218,2.6.478,8.355,3.68,9.577,2.393.913,1.038-5.758,3.326-6.9,1.425-.711,2.993,2.185,2.931,3.77-.175,4.47-6.361,9.426-3.587,12.949,4.717,5.991,15.575,3.823,21.015,9.175,4.076,4.01,3.317,10.928,4.975,16.4Z" transform="translate(-717.122 -451.334)" fill="#c9c9c9" stroke="#fff" stroke-linejoin="bevel" stroke-width="2.591" fill-rule="evenodd"/>
</svg>
