<svg xmlns="http://www.w3.org/2000/svg" width="250.182" height="185.068" viewBox="0 0 250.182 185.068">
  <path id="path80" d="M93.213,367.25c-.48-1.872.07-4.425-1.448-5.615-4.26-3.34-12.038-2.27-14.653-7.01-1.715-3.111,4.746-5.527,5.876-8.89.377-1.121-1.022-2.2-1.867-3.029-1.691-1.659-3.281-4.1-5.641-4.34-2.3-.236-4.1,4.075-6.219,3.126-1.807-.812,1.449-4.672-.06-5.95-3.482-2.95-8.945-2.455-12.78-4.929-2.588-1.669-3.27-5.52-5.9-7.118-.957-.581-2.077,2.642-2.841,1.817-1.424-1.537.576-5.057-1.194-6.174-3.385-2.138-8.847.593-11.843-2.066-1.632-1.449,4.154-4.1,2.893-5.873-3.635-5.12-11.373-6.222-15.083-11.287-2.037-2.781-1.445-6.943-.753-10.32.616-3,4.323-4.957,4.515-8.013a15.11,15.11,0,0,0-3.4-9.724c-1.754-2.276-5.728-2.053-7.445-4.357-1.565-2.1.427-6-1.554-7.712-2.218-1.919-6.1.124-8.73-1.179-1.823-.9-4.556-3.128-3.609-4.925,1.968-3.73,9.493-3.362,10.173-7.521.852-5.206-9.6-10.076-6.579-14.4,3.125-4.474,12.163-3.086,16.369.387,4.029,3.326-.513,11.384,2.793,15.433,2.3,2.815,7.444-.054,10.831,1.249,1.357.521,2.736,2.416,2.213,3.773-.813,2.107-6.19,2.143-5.307,4.223,1.762,4.154,8.858,4.223,10.643,8.364,1.1,2.547-3.682,4.622-3.844,7.4a7.964,7.964,0,0,0,3.022,6.538c2.3,1.678,7.264,4.4,8.351,1.776,2.9-7.006-1.572-15.411.342-22.745.457-1.752,3.987,3.32,5.1,1.892,1.491-1.915-1.759-4.932-.951-7.216,1.254-3.543,4.479-6.044,6.718-9.064s-1.3.555,0,0,3.443-.33,3.912-1.663c.946-2.689-1.975-6.236-.313-8.549,1.326-1.845,4.969.855,6.8-.48,3.489-2.541,4.354-7.816,7.92-10.246,1.267-.863,3.255,3.293,4.129,2.034,3.054-4.4.485-12.467,5.054-15.258,10.021-6.12,24.139-3.436,26.353-3.931s4.5-2.236,6.636-1.478c2.911,1.034,3.94,7.323,6.842,6.263,3.862-1.412,2.7-8.2,5.808-10.887,3.543-3.065,8.3-5.5,12.984-5.38,2.1.053.854,7.026,2.546,5.777,2.645-1.952-.583-10.559,2.538-9.533,10.777,3.54,28.7,26.751,25.457,18.732-.333-.825-1.461-2.1-1-2.471l1,2.471c1.818,1.592,3.083,4.322,5.456,4.779,3.156.607,6.26-2.256,9.452-1.9,5.488.606,11.835.958,15.881,4.711,2.167,2.01-2.253,5.964-1.34,8.778.551,1.7,3.12,2.278,4.9,2.17,6.51-.394,12.8-4.738,19.227-3.626,3.132.543,5.315,4.718,5.36,7.9.094,6.68-4.6,12.749-4.978,19.419-.074,1.3,3.2-.306,3.818.834a10.647,10.647,0,0,1,.786,7.574c-.337,1.276-3.759.857-3.36,2.119.909,2.879,5.14,3.816,6.134,6.667.482,1.384-3.041,2.2-2.559,3.581.511,1.465,3.465.344,4.373,1.6a37.548,37.548,0,0,1,5.288,11.766,3.96,3.96,0,0,1-.819,3.891c-.944.8-3.722-1.271-3.726-.031-.006,2.406,5.271,4.378,3.7,6.2s-4.294-2.938-6.693-2.728c-1.96.171-5.862,2.2-4.6,3.709,2.075,2.494,6.909.214,9.494,2.175,2.76,2.095,3.487,6,5.227,9-1.293,0-3.09-1.021-3.885,0a7.287,7.287,0,0,0-1.323,6.67c.569,1.445,3.758-.072,4.474,1.3a3.894,3.894,0,0,1-1.39,4.62c-3.811,2.148-10.4-.4-12.7,3.325-3,4.851,5.124,14.508.054,17.126-5.14,2.655-8.977-7.677-14.394-9.713-3.438-1.292-7.468,1.081-11.024.161-1.311-.339-.838-4.2-2.01-3.532-2.575,1.477-2.439,5.752-4.863,7.475-4.693,3.335-10.994,3.881-15.729,7.163-.967.67,1.359,3,.306,3.522-2.5,1.237-6.714-1.78-8.367.47-2.282,3.107.958,7.978-.47,11.564-1.088,2.733-3.583,5.651-6.511,5.964-3.019.323-4.932-4.251-7.963-4.432-2.857-.171-5.021,3.843-7.858,3.475-3.32-.431-5.005-5.414-8.35-5.59a50.723,50.723,0,0,0-21.98,4c-1.484.622,2.937,3.518,1.685,4.53-2.2,1.782-6.41-1-8.464.957-1.46,1.393,3.041,6.841,1.232,5.939-3.154-1.573-2.811-8.222-6.325-8.483-4.367-.325-6.665,6.55-11,7.2-3.263.487-5.977-2.806-8.967-4.208Z" transform="translate(0.031 -189.063)" fill="#c9c9c9" stroke="#fff" stroke-linejoin="bevel" stroke-width="2.571" fill-rule="evenodd"/>
</svg>
