<svg xmlns="http://www.w3.org/2000/svg" width="264.84" height="177.945" viewBox="0 0 264.84 177.945">
  <path id="path74" d="M520.36,66.075c2.442,5.812,12.665,2.335,18.264,5.285,1.9,1,.734,5.057,2.748,5.789,4.527,1.647,10.616,3.368,14.465.48,4.883-3.665,1.506-14.616,7.226-16.759,10.886-4.079,24.481,6.127,34.889.973,5.141-2.546-3.366-11.24-2.708-16.9.59-5.074,5.569-8.935,6.306-13.987a6.752,6.752,0,0,0-3.331-6.3c-1.238-.678-1.9,2.893-3.295,2.668-1.887-.305-4.072-1.991-4.2-3.883-.174-2.549,1.64-5.06,3.472-6.848,2.027-1.977,4.718-3.881,7.556-3.92,5.616-.077,11.579.84,16.458,3.6,1.547.875-1.846,3.8-.822,5.254,1.076,1.523,3.607,1.118,5.467,1.329.989.112,2.577.538,2.968-.371.916-2.125-1.066-4.989.184-6.931,1.1-1.718,4.568-3.939,5.729-2.257,2.031,2.942-3.111,9.138.113,10.716,4.225,2.067,8.865-4.639,13.532-4.034,2.08.27.138,4.672,1.746,6.018,1.427,1.194,4.218-1.122,5.6.121a10.588,10.588,0,0,1,3.647,8.179c-.224,2.755-4.48,4.02-4.856,6.762a24.722,24.722,0,0,0,2.142,12.983,28.524,28.524,0,0,0,7.983,9.819c2.714,2.124,5.777,1.164,7.648,2.416s2.292.8,2.931,4.646-.643,12.121.827,17.92c.353,1.4,2.885,2.266,4.089,1.466,3.9-2.588,4.7-10.172,9.374-10.413,7.261-.374,12.892,6.95,19.89,8.91.331,2.294-.217,4.9.986,6.883,1.607,2.646,6.353,3.162,6.953,6.195,1.164,5.871-2.779,11.871-2.18,17.829.347,3.451,4.615,5.756,4.892,9.218.166,2.066-4.385,3-3.757,4.983,1.033,3.257,7.29,3.579,7.557,6.984.325,4.158-5.7,6.772-6.162,10.922-.186,1.679,3.85.456,4.733,1.9s-1.232,3.566-.45,5.073c2.165,4.17,8.975,6.339,8.811,11.031-.112,3.232-6.053,3.164-9.31,2.982-1.72-.1-1.858-3.618-3.574-3.7-3.906-.192-7.629,4.167-11.346,2.963-3.821-1.238-4.545-6.781-7.766-9.166-1.091-.808,1.726,3.023.773,3.99-2.136,2.168-7.054.98-8.378,3.715-1.708,3.529,3.057,8.438.906,11.722-1.864,2.844-6.986,3.754-10.023,2.189-2.732-1.407-.494-6.672-2.736-8.762-1.144-1.067-.682,4.415-2.23,4.135-2.739-.5-3.583-4.525-6.124-5.65-4.58-2.027-9.775-4.829-14.618-3.534-4.3,1.149-4.506,9.727-8.959,9.853-6.1.173-10.537-6.107-15.809-9.16-2.941-.908-6.509-.7-8.824-2.718-2.84-2.471-2.669-7.4-5.561-9.805-1.9-1.584-5.554.685-7.38-.979-3.455-3.147-3.56-8.962-7.007-12.117-1.582-1.447-4.537-1.17-6.457-.2-1.3.654-.006,4.719-1.341,4.138-3.436-1.5-4.559-6.168-7.764-8.107-1.369-.828-4.152-.956-4.8.508-1.289,2.923,2.419,7.137.347,9.576-2.878,3.388-9.3,1.682-12.518,4.754-1.3,1.241,3.1,3.059,2.53,4.766-.886,2.672-3.24,5.943-6.075,5.912-5.572-.065-10.464-8.486-15.522-6.167-4.039,1.854,1.9,9.254.042,13.271-.81,1.749-4.265-2.244-5.741-.991-1.781,1.513.306,5.1-1.2,6.888-1.412,1.68-4.71.509-6.3,2.031-.837.8,1.764,3.246.612,3.421-3.906.591-7.8-2.148-11.729-1.736-3.245.34-6.321,5.768-8.989,3.892-3.223-2.268,1.143-9.209-1.976-11.607-2.19-1.682-3.863,4.911-6.633,4.983-2.171.055-2.326-4.921-4.488-4.7-2.514.259-2.543,5.082-5,5.674-1.554.373-1.983-2.5-2.976-3.746-1.079-2.328-1.294-5.3-3.242-6.984-1.509-1.3-4.916.8-5.931-.915-7.5-12.645-12.919-26.429-18.369-40.068-.787-1.969-1.125-4.461-.176-6.356,1.11-2.215,4.87-2.437,5.739-4.752,1.1-2.924-1.733-6.519-.432-9.358,1.356-2.96,4.557-4.959,7.57-6.222,1-.419,2.284,2.983,2.609,1.953,1.047-3.32-1.288-7.236.074-10.442.95-2.236,5.6-1.675,6.091-4.05.706-3.408-4.622-6.776-3.192-9.951,1.168-2.59,5.567-1.845,8.412-1.63.813.059-1.75,1.7-1.1,2.178a22.464,22.464,0,0,0,9.519,4c2.4.392,5.89.77,7.193-1.273,2.252-3.532-.755-8.952,1.554-12.444,1.3-1.974,5.057.549,7.1-.646,1.771-1.035,2.056-3.536,3.081-5.3Z" transform="translate(-464.231 -11.365)" fill="#c9c9c9" stroke="#fff" stroke-linejoin="bevel" stroke-width="2.562" fill-rule="evenodd"/>
</svg>
