<svg xmlns="http://www.w3.org/2000/svg" width="365.089" height="293.363" viewBox="0 0 365.089 293.363">
  <path id="path58" d="M1318.4,509.35c-2.766-.71-8.19.714-8.3-2.125l-.364-9.155c-.138-3.476-6.764-2.585-9.135-5.14-3.323-3.583-2.868-10.742-7.376-12.655-5.688-2.415-12.475,3.146-18.482,1.676-3.975-.973-5.138-6.868-8.937-8.39-1.908-.762-3.559,2.742-5.609,2.567-1.3-.109-.866-3.377-2.156-3.237-9.4,1-18.23,7.466-27.62,6.4-3.666-.415-1.362-8.169-4.524-10.05-3.411-2.029-7.949.175-11.926.266-1.156-3.048-.306-8.306-3.466-9.143-3.628-.96-6.007,5.259-9.746,5.643-1.708.175-2.946-2.691-2.679-4.374.364-2.286,5.058-3.345,4.249-5.511-1.958-5.242-6.729-9.106-11.056-12.676-2.137-1.762-5.942-.848-7.815-2.888-3.618-3.939-3.4-10.9-7.739-14.043-1.849-1.34-2.143,5.444-4.422,5.233a9.514,9.514,0,0,1-7.75-6.363c-1.222-4.5,4.57-9.73,2.274-13.783-2.649-4.677-8.947-7.134-14.326-7.494-3.576-.239-5.4,6.311-8.966,5.923-4.8-.523-7.12-7.726-11.93-8.2-2.408-.24-.182,6.408-2.578,6.76-3.1.457-4.748-4.579-7.818-5.231-3.869-.822-8.46,3.1-11.837,1.044-6.656-4.058-8.618-13.659-15.337-17.608-2.342-1.376-4,5.031-6.692,4.66-5.693-.781-9.827-6.353-15.41-7.7-2.465-.595-6.093,4.433-7.291,2.209-2.075-3.857,4.342-9.758,1.448-13.046-2.154-2.446-5.079,6.363-8.193,5.377-4.311-1.365-7.823-6.156-8.39-10.623-.52-4.083,4.869-6.957,5.64-10.992.265-1.389-3.472-1.755-2.949-3.065,1.5-3.766,8.331-5.269,7.884-9.3-.54-4.87-9.255-5.9-10.106-10.73-.9-5.082,3.047-9.969,5.671-14.418,2.542-4.309,8.321-6.7,9.634-11.521,1.117-4.1-3.585-8.138-3.12-12.358.25-2.263,4.466-2.468,5-4.677.682-2.8-3.13-5.913-1.793-8.469,3.143-6.007,8.483-10.822,13.974-14.817,2.091-1.522,5.807.775,7.718-.963,3.024-2.751,1.751-9.162,5.416-10.989,3.1-1.545,7.388,5.823,9.833,3.379,3.343-3.34.605-9.413.908-14.116,5.012.02,8.374-5.818,13.2-7.157a62.634,62.634,0,0,1,19.86-2.035c2.232.115,3.716,4.166,5.794,3.359a29.382,29.382,0,0,0,13.513-10.859c1.587-2.385-3.458-8.382-.59-8.566,5.26-.336,11.794,2.867,13.78,7.725,1.9,4.653-5.691,9.379-4.756,14.316.66,3.487,7.1,3.072,8.66,6.262,1.389,2.847,1.152,7.108-.985,9.457-1.882,2.068-6.072-.75-8.379.837-2.006,1.379-.627,5.476-2.684,6.778-6.726,4.255-19.2,1.591-22.168,8.953-2.431,6.024,7.776,10.518,12.511,14.985,1.452,1.37,3.7,2.68,5.62,2.125,1.777-.513,1.184-4.489,3.025-4.633,2.356-.185,4.483,2.049,5.888,3.939a121.386,121.386,0,0,1,10.891,18.622c1.156,2.329.089,5.845,2.085,7.522,2.665,2.239,7.319.637,10.114,2.712,1.45,1.076-.371,3.952.765,5.356,2.287,2.824,5.237,5.741,8.81,6.457a15.329,15.329,0,0,0,10.962-2.5c2.952-1.945,3.266-6.491,6.016-8.7,2.916-2.347,6.584-4.272,10.332-4.454,3.123-.151,6.131,5.33,8.687,3.54,2.6-1.82,1.906-7.118-.195-9.49-1.974-2.228-6.382.741-8.932-.81-1.333-.811-1.012-3.426-.074-4.662,1.582-2.087,4.116-4.4,6.722-4.1a16.793,16.793,0,0,1,11.056,6.157c2.978,3.91,1.322,10.2,4.353,14.073a13.21,13.21,0,0,0,10.6,5c2.2-.153,1.005-4.79,2.887-5.923,1.961-1.181,5.22-1.536,6.88.036,2.243,2.122-.029,7.187,2.551,8.893,3.61,2.386,9.329-1.043,12.934,1.346,2.183,1.447-.607,5.627.861,7.791a17.506,17.506,0,0,0,9.207,7.037c1.367.392-.1-3.276.939-4.429,1.161-1.287,4.532-.274,4.827-1.975.314-1.808-5.619-3.841-3.784-4.027a48.688,48.688,0,0,1,20.658,2.325c6.519,2.266,10.983,8.846,17.554,10.957,2.327.747,5.4-1.083,6.6-3.2.93-1.635-3.208-4.218-1.72-5.371,1.936-1.5,6.287-1.175,7.3,1.053,1.813,4.006-2.548,9.1-.864,13.168,1.348,3.253,8.411,2.435,8.788,5.932.464,4.3-7.745,6.711-6.972,10.966,2.22,12.2,7.228,24.454,15.169,34.022,3.5,4.22,11.317.931,16.093,3.638,1.995,1.131.494,4.813,1.939,6.591,1.1,1.352,3.173,1.792,4.924,1.833,4.516.107,10.961-5.117,13.477-1.39,6.388,9.461,4.307,22.471,8.038,33.246,1.025,2.962,5.68,4.155,6,7.272.328,3.236-3.921,5.52-4.376,8.745-.158,1.117,3.887,1.307,2.876,1.816-2.536,1.275-5.931-.267-8.473,1-4.8,2.4-7.553,8.815-12.857,9.668-4.968.8-9.087-5.207-14.115-5.322-4.343-.1-7.8,4.738-12.151,4.717-2.392-.011-2.946-4.509-5.32-4.8-3.12-.384-6.292,1.331-8.927,3.036-1.7,1.1-3.3,2.977-3.457,4.99-.2,2.513,3.542,4.856,2.5,7.153-2.149,4.728-7.834,6.994-10.854,11.229-1.55,2.173-1.182,5.307-2.573,7.588-1.267,2.079-2.875,4.395-5.2,5.161-6.141,2.024-8.689-2.153-9.639-.266Z" transform="translate(-1047.183 -218.06)" fill="#c9c9c9" stroke="#fff" stroke-linejoin="bevel" stroke-width="2.58" fill-rule="evenodd"/>
</svg>
