<svg xmlns="http://www.w3.org/2000/svg" width="260.048" height="381.776" viewBox="0 0 260.048 381.776">
  <path id="path54" d="M1101.7,244.45c-.3,4.733,2.437,10.845-.909,14.206-2.448,2.46-6.742-4.956-9.845-3.4-3.668,1.839-2.394,8.29-5.422,11.059-1.913,1.75-5.634-.562-7.727.969-5.5,4.02-10.843,8.866-13.99,14.911-1.338,2.573,2.478,5.7,1.8,8.523-.539,2.223-4.76,2.43-5.01,4.707-.466,4.247,4.241,8.312,3.123,12.436-1.315,4.849-7.1,7.258-9.645,11.594-2.627,4.477-6.574,9.4-5.677,14.51.852,4.857,9.577,5.9,10.118,10.8.447,4.053-6.388,5.565-7.893,9.356-.523,1.319,3.219,1.687,2.953,3.085-.772,4.061-6.167,6.952-5.647,11.062.568,4.5,4.084,9.317,8.4,10.691,3.118.992,6.047-7.873,8.2-5.411,2.9,3.309-3.527,9.248-1.45,13.129,1.2,2.239,4.831-2.821,7.3-2.223,5.59,1.355,9.728,6.962,15.428,7.749,2.7.373,4.355-6.074,6.7-4.69,6.726,3.974,8.691,13.636,15.354,17.72,3.38,2.071,7.977-1.878,11.85-1.051,3.074.656,4.72,5.724,7.827,5.264,2.4-.354.171-7.044,2.581-6.8,4.816.481,7.135,7.729,11.944,8.256,3.568.391,5.4-6.2,8.976-5.961,5.385.362,11.69,2.835,14.342,7.542,2.3,4.079-3.5,9.347-2.276,13.871a9.537,9.537,0,0,0,7.759,6.4c2.282.212,2.576-6.615,4.427-5.266,4.342,3.162,4.126,10.168,7.748,14.133,1.875,2.053,5.684,1.133,7.823,2.907,4.332,3.592,9.109,7.481,11.069,12.757.81,2.179-3.89,3.245-4.254,5.546-.268,1.693.972,4.578,2.682,4.4,3.744-.386,6.125-6.645,9.757-5.679,3.164.842,2.313,6.133,3.47,9.2-1.2,3.045-.514,8.043-3.6,9.135-3.836,1.358-7.656-4.592-11.635-3.734-2.082.448.886,4.827-.586,6.371-2.71,2.847-8.3,2.083-10.532,5.322-1.219,1.775,3.293,3.669,2.89,5.783-.38,2-3.837,2.055-4.729,3.889-.706,1.451.323,3.214.482,4.825-4,.829-8.091,3.645-12.011,2.487-3.187-.943-3.52-5.826-6.153-7.849a2.724,2.724,0,0,0-3.446.466c-1.472,2.1.27,6.376-2.076,7.423-2.707,1.209-7.542-5.53-8.479-2.715-1.283,3.865,5.321,6.711,5.813,10.753.256,2.094-1.831,4.611-3.908,4.985-8.719,1.574-18.066-1.932-26.583.517-2.2.631,3.276,4.277,2.465,6.419-1.452,3.844-4.244,8.7-8.339,9.105-3.128.311-2.419-6.721-5.391-7.749-4.949-1.716-11.2,3.09-15.719.436-3.043-1.788,2.113-10.217-1.406-10.5-4.05-.332-6.891,5.747-7.271,9.795-.433,4.626,5.988,8.4,5.129,12.965-.569,3.011-6.206,1.715-8.319,3.937-2.891,3.037-2.742,8.409-5.977,11.082-1.615,1.333-4.14-.677-6.209-1.015-4.451.857-12.171-1.8-13.351,2.573l-2.522,9.352c-.384,1.422-2.51-1.549-3.765-2.321-1.654-5.477-.9-12.407-4.963-16.425-5.427-5.361-16.259-3.19-20.964-9.191-2.767-3.529,3.4-8.494,3.579-12.972.062-1.589-1.5-4.489-2.925-3.777-2.283,1.145-.931,7.827-3.318,6.913-3.2-1.224-1.459-6.985-3.672-9.594-1.441-1.7-5.222-.25-6.326-2.187-1.435-2.517,1.385-6.094.117-8.7-1.208-2.481-5.114-2.611-6.714-4.859-1.582-2.221-.256-6.085-2.342-7.838-2.25-1.889-6.239-3.045-8.7-1.44L992.5,498.7c-2.9,1.889,6.144,3.532,8.3,6.24,2.182,2.745,4.267,6.1,4.308,9.6.02,1.636-3.533,1.1-4.169,2.608-.893,2.117,1.249,4.882.154,6.9-1.526,2.819-4.113,6.711-7.291,6.278-5.488-.748-10.25-4.968-13.865-9.166-1.256-1.458-.112-4.167,1.074-5.682,1.28-1.636,5.808-.749,5.574-2.814-.332-2.938-5.446-3.233-6.562-5.966a40.388,40.388,0,0,1-2.788-16.9c.058-1.286,2.942-.29,3.612-1.385,1.045-1.706-.47-4.47.882-5.944,1.1-1.193,6.436.031,4.853-.3-6.676-1.405-15.2,1.623-20.266-2.948-3.544-3.2-2.385-11.1,1.177-14.282,2.722-2.428,6.637,5.415,10.089,4.241,2.748-.935,1.463-5.619,2.2-8.426.379-3.214-.117-6.661,1.135-9.641.36-.855,2.427,2.591,2.207,1.691-.866-3.542-4.539-6.438-4.259-10.07.175-2.31,3.581-2.935,5.371-4.4l3.153-12.233c-1.064-2.554-.812-6.259-3.195-7.657-2.494-1.464-6.984,3.068-8.656.7-1.512-2.141,5.492-3.816,4.7-6.311-2-6.268-8.65-10.059-11.778-15.849-2.673-4.947-3.625-10.651-5.438-15.976.154-1.47-.4-3.206.458-4.407,1.457-2.043,6.376-2.125,5.961-4.6-2.3-13.736-11.812-25.747-13.379-39.584-.341-2.987,6.369,2.221,8.986.751,2.305-1.3.787-5.763,2.857-7.4,7.594-6.021,10.135-5.26,9.9-8.5-.21-2.914-4.631-4.614-4.482-7.529.133-2.594,4.978-3.246,5.175-5.834.213-2.778-4.214-4.456-4.184-7.243.018-1.664,3.708-1.013,4.289-2.569,3.23-8.645,4.477-17.909,6.715-26.861,1.227.346,2.963.438,3.786-.527,1.768-2.07.729-6.243,3.114-7.551,3.541-1.942,8.508,1.072,12.086-.791,2.208-1.15.34-7.538,2.752-6.942,3.484.86,3.041,6.792,5.823,9.058,1.01.823,3.637,0,3.7-1.307.371-8.116,1.2-17.03-2.535-24.241-2.216-4.273-10.316-2.089-13.151-5.979-4.883-6.7-3.793-16.492-8.294-23.453-2.135-3.3-8.975-1.859-10.437-5.509-1.468-3.668,1.51-7.984,3.721-11.253,1.154-1.706,3.679-3.246,5.625-2.573,5.385,1.863,8.824,7.715,14.249,9.459,1.835.59,2.808-3.693,4.706-3.365,4.337.748,7.419,5.027,11.662,6.195,3.829,1.054,8.246-1.216,11.916.3,3.165,1.3,3.714,6.583,7.01,7.506,3.987,1.117,8.389-3.611,12.248-2.111,2.083.81-1.8,4.921-.442,6.7,4.162,5.463,9.2,11.153,15.717,13.332,4.921,1.647,11.768-6.76,15.293-2.954,4.726,5.1-.329,14.06,1.268,20.832.458,1.939.816-4.23,2.349-5.5,1.389-1.152,3.545-.973,5.346-.883,2.28.114,5.065-.106,6.686,1.5,1.8,1.777-.341,7.258,2.188,7.268Z" transform="translate(-954.748 -184.706)" fill="#c9c9c9" stroke="#fff" stroke-linejoin="bevel" stroke-width="2.59" fill-rule="evenodd"/>
</svg>
