<svg xmlns="http://www.w3.org/2000/svg" width="312.607" height="209.516" viewBox="0 0 312.607 209.516">
  <path id="path76" d="M985.2,267.73c-2.227,8.908-3.468,18.126-6.682,26.728-.577,1.548-4.25.9-4.268,2.556-.03,2.773,4.375,4.443,4.163,7.207-.2,2.576-5.018,3.224-5.15,5.8-.148,2.9,4.25,4.592,4.459,7.492.232,3.224-2.3,2.466-9.853,8.457-2.06,1.633-.549,6.078-2.843,7.367-2.6,1.463-9.281-3.719-8.942-.747,1.559,13.769,11.019,25.72,13.313,39.388.413,2.458-4.482,2.54-5.932,4.572-.851,1.194-.3,2.922-.455,4.385,1.8,5.3,2.751,10.975,5.411,15.9,3.112,5.762,9.728,9.534,11.72,15.771.792,2.483-6.177,4.15-4.673,6.28,1.664,2.351,6.132-2.158,8.613-.7,2.37,1.39,2.12,5.077,3.179,7.619l-3.137,12.173c-1.781,1.458-5.17,2.08-5.345,4.379-.279,3.615,3.376,6.5,4.238,10.02.219.9-1.838-2.534-2.2-1.683-1.246,2.965-.752,6.395-1.129,9.593-7.518-2.624-14.715-6.478-22.551-7.872-8.439-1.5-17.142-.787-25.716-.7-1.678.017-4.166-.492-4.938,1-1.929,3.718,1.352,9.913-2.015,12.41-2.993,2.22-7.085-3.156-10.8-2.9-3.164.217-5.359,4.047-8.529,4.224-1.421.08-.944-3.111-2.272-3.629a3.409,3.409,0,0,0-3.689,1.31c-1.4,2.164.008,5.837-1.983,7.479-1.187.979-2.445-1.878-3.669-2.815-3.034-3.277-5.243-7.6-9.108-9.826-4.92-2.837-11.6-1.736-16.35-4.85-3.39-2.222-3.153-8.112-6.625-10.2-5.532-3.328-12.77-2.5-18.7-5.044-1.35-.579-.711-4.344-2.1-3.875l-7.678,2.591c-3.593,1.212-4.541-6.082-6.811-9.123-3.676-.471-7.735.277-11.036-1.411-2.359-1.206-2.185-7.773-4.53-6.538-3.663,1.93-2.32,8.145-4.8,11.457-.8,1.061-4.223-1.046-3.984.263l.775,4.23c.483,2.637-5.307,1.852-7.941,1.343-2-.385-3.2-2.537-4.8-3.8-3.313-2.156-8.237-2.9-9.946-6.461-1.248-2.6,2.816-5.261,2.944-8.142.054-1.21-1.553,2.871-2.692,2.454-3.583-1.313-5.65-5.434-9.208-6.821-2.156-.841-5.456,2.322-6.934.535-1.586-1.917,3.133-5.676,1.3-7.351-2.232-2.042-6.339,1.525-9.077.239-2.931-1.376-3.609-5.564-6.244-7.447-2.787-1.993-6.121-3.694-9.548-3.835-5.017-.206-9.882,3.82-14.8,2.826-2.419-.487-1.616-4.933-3.494-6.529-4.851-4.12-10.78-6.777-16.171-10.163.008-3.792-1.178-7.782.027-11.371.482-1.436,3.776-.079,4.3-1.5l3-8.172c.687-1.875-3.576-2.59-3.885-4.561-.206-1.322,2.349-1.675,2.708-2.961.414-1.483.585-3.606-.6-4.577-3.98-3.252-10.2-3.336-13.694-7.107-1.483-1.6,1.554-4.316,1.131-6.454-.22-1.111-.852,3.424-1.845,2.868-1.105-.619,1.3-3.219.176-3.8-3.638-1.886-8.371-.6-12.071-2.374-3.243-1.55-8.025-3.63-8.006-7.226.014-2.736,6.808.874,8.056-1.557.987-1.924-6.165-1.519-5.435-3.552.86-2.394,6.056.249,7.4-1.91s-2.441-5.067-1.577-7.451c.523-1.442,4.974.739,4.539-.728-.59-1.994-6.117-.783-5.581-2.788.757-2.835,5.03-3.034,7.546-4.549,1.082,1.6,1.495,3.989,3.244,4.811,1.187.558,2.562-.789,3.608-1.576,6.906-5.2,12.31-12.711,20.165-16.318,1.966-.9,1.551,4.986,3.685,5.358,4.2.734,8.308-2.9,12.556-2.522,3.208.285,5.382,4.544,8.6,4.409a15.408,15.408,0,0,0,10.22-5.186c1.4-1.545-1-4.517.143-6.254a11.521,11.521,0,0,1,7.067-4.665c2.022-.422,4.838.173,5.888,1.95,1.482,2.508-1.061,6.232.427,8.739,1.224,2.061,4.344,3.955,6.542,3,6.458-2.815,9.83-11.143,16.6-13.1,5.054-1.458,11.415.342,15.3,3.892,3.654,3.339.882,10.752,4.463,14.168,2.592,2.472,7.678-1.5,10.746.344,2.268,1.364.386,5.875,2.418,7.572,1.91,1.595,5.255-.525,7.434.667,2.636,1.441,3.43,5.212,6.041,6.7,2.143,1.225,5.26-.372,7.347.941,2.329,1.466,2.065,6.524,4.808,6.715,3.617.251,5.656-5.23,9.248-5.737,1.458-.205-.243,4.031,1.213,4.258,2.492.389,4.443-3.049,6.96-2.976,3.634.107,7.179,5.272,10.343,3.482,2.357-1.333-4.791-4.691-3.771-7.2,1.285-3.156,7.2-2.188,8.813-5.186.9-1.672-5.114-3.119-3.678-4.355,7.879-6.776,19.049-8.931,26.953-15.671,2.228-1.9-1.346-8.36,1.565-8.647,7.189-.706,13.787,4.311,20.681,6.47,2.06,4.288,6.607,7.087,10.8,9.323,4.646,2.477,10.171,6.24,15.143,4.511,4.622-1.607,4.371-8.927,7.736-12.478,1.973-2.082,6.054-1.489,7.717-3.827,2.914-4.1,2.572-9.857,5.1-14.2,1.51-2.591,3.813-5.172,6.686-6.018,1.625-.478,2.621,2.327,4.253,2.786Z" transform="translate(-675.902 -263.615)" fill="#c9c9c9" stroke="#fff" stroke-linejoin="bevel" stroke-width="2.577" fill-rule="evenodd"/>
</svg>
