<svg xmlns="http://www.w3.org/2000/svg" width="301.024" height="375.868" viewBox="0 0 301.024 375.868">
  <path id="path72" d="M298.18,672.41c-3.115-.183-6.8-2.347-9.349-.547-2.525,1.783.576,9.153-2.509,8.937-5.956-.417-10-6.551-14.761-10.153-1.843-1.4-4.486-2.559-5-4.812-1.517-6.592,2.542-14.385-.774-20.281-5.264-9.362-14.006-16.82-23.2-22.367-3.109-1.875-7.21,2.758-10.734,1.884-4.375-1.085-8.811-3.643-11.35-7.368-2.3-3.37.349-8.7-1.92-12.089-2.882-4.3-9.26-5.234-12.429-9.331-3.014-3.894-2.4-9.87-5.432-13.744-2.59-3.305-8-3.5-10.637-6.766-2.263-2.809-.635-5.476-.584-7.166s1.182-3.734.152-5.07c-1.008-1.309-3.539-.028-4.853-1.028-4.609-3.505-7.362-9.36-12.447-12.129-4.131-2.249-9.392-3.464-13.938-2.244-1.888.507,2.468,5.857.511,5.851-7.534-.023-15.983-1.153-21.816-5.917-4.249-3.472-1.979-11.033-4.742-15.775-2.244-3.852-5.96-6.833-9.775-9.132-3.194-1.925-8.221-.456-10.724-3.222-3.154-3.485-4.065-8.726-4.34-13.417-.3-5.025,4.735-10.261,2.691-14.857-1.737-3.906-9.5-1.637-11.667-5.32-3.947-6.721-2.457-15.284-4.2-22.817-.466-2.01-.537-3.051-1.612-3.662-1.834-1.043-5.663,1.5-6.324-.509-2.144-6.513,2.993-14.736-.621-20.559-2.944-4.745-11.67-1.956-15.726-5.792-4.745-4.487-10.342-11.1-8.887-17.466,1.3-5.683,11.786-4.181,14.956-9.071,2.695-4.155-1.108-10.19.561-14.848.644-1.8,4.34-.287,5.426-1.858,1.149-1.663-.891-4.29.052-6.076,4.522-8.565,11.66-13.311,11.179-15.188s.07-4.436-1.452-5.629l1.452,5.629c3,1.4,5.717,4.706,8.988,4.218,4.346-.649,6.649-7.54,11.027-7.214,3.522.262,3.179,6.926,6.341,8.5,1.813.9-2.7-4.557-1.235-5.953,2.059-1.964,6.275.827,8.484-.959,1.255-1.015-3.177-3.917-1.689-4.541a50.852,50.852,0,0,1,22.034-4.005c3.353.176,5.043,5.171,8.37,5.6,2.844.369,5.014-3.654,7.877-3.483,3.038.182,4.957,4.766,7.983,4.443,2.935-.314,5.436-3.239,6.527-5.978,1.431-3.594-1.817-8.478.471-11.592,1.657-2.256,5.879.768,8.387-.471,1.056-.522-1.276-2.858-.307-3.53,4.746-3.291,11.062-3.837,15.767-7.181,2.43-1.727,2.294-6.012,4.875-7.493,1.175-.674.7,3.2,2.015,3.54,3.565.922,7.605-1.457,11.051-.162,5.43,2.041,9.277,12.4,14.429,9.737,5.083-2.624-3.063-12.3-.054-17.167,2.309-3.732,8.914-1.18,12.735-3.333a3.9,3.9,0,0,0,1.393-4.631c-.717-1.379-3.914.142-4.485-1.306a7.3,7.3,0,0,1,1.326-6.686c.8-1.02,2.6,0,3.894,0,1.652-.384,3.512-2.028,4.955-1.148,1.6.981,0,5.289,1.877,5.322,2.274.039,2.265-5.968,4.413-5.215,2.953,1.035,1.517,7.064,4.391,8.305,2.247.968,4.247-2.443,6.369-3.664,1.532,3.005,4.132,5.677,4.593,9.019.154,1.119-2.757-1.216-3.391-.277-1.891,2.8-6.19,8.666-2.972,9.7,7.885,2.544,16.43-3.007,24.706-2.695,1.683.063,4.283,2.334,3.386,3.763-1.315,2.1-5.764.1-7.117,2.174-.869,1.333,2.376,2.207,3.816,2.885,5.666,2.665,11.2,6.258,17.4,7.1,3.576.485,7.079-4.931,10.309-3.33,4.755,2.358,4.676,10.224,9.2,13.006,2.87,1.765,10.478-4.517,10.032-1.183l-1.079,8.066c-.639,4.775,9.1,3.242,13.793,4.322,1.5.345,4.111-1.534,4.612-.086.655,1.893-3.25,3.385-2.788,5.339l3.3,13.933c.4,1.69-4.667-1.825-5.214-.176-3.647,11.007-6.483,22.67-6.079,34.264.088,2.512,7.452-.708,7.33,1.807-.143,2.936-5.687,2.223-7.637,4.424-1.712,1.932-.309,6.321-2.714,7.257-1.97.767-2.461-4.491-4.574-4.41-3.82.148-8.607,1.568-10.346,4.975l-4.985,9.76c-.605,1.185.74,3.148,2.041,3.437,3.078.685,8.1-3.741,9.421-.882,1.248,2.705-7.814.19-8.385,3.115-.622,3.182,7.392,4.342,6.326,7.407-.979,2.816-11.613-1.224-8.958.144l16.267,8.375c7.178,3.7-4.479,15.92-3.663,23.959.2,2.015,5.022-1.775,6.076-.048,1.763,2.885.069,6.77.1,10.157-1.249,2.9-3.914,5.556-3.749,8.715.075,1.434,3.865-.624,4.247.76.9,3.272-2.116,6.835-1.239,10.119.679,2.545,5.4,3.076,5.473,5.71.063,2.166-4,2.111-5.2,3.917a8.112,8.112,0,0,0-1.348,5.906c1.226,5.806,5.694,10.8,6.127,16.722.246,3.361-1.817,6.84-4.242,9.187-2.385,2.309-7.507.973-9.2,3.829-1.636,2.757,2.767,6.715,1.258,9.55-1.07,2.011-5.542-1.059-6.794.85s.258,5.019,1.924,6.579c1.338,1.253,6.194-1.33,5.49.358-1.626,3.9-8.569,4.507-9.261,8.681-.672,4.063,6,6.673,6.034,10.795.016,2.286-4.9,1.406-5.939,3.45-1.281,2.532,1.683,6.325-.119,8.522-1.4,1.706-4.668-1.346-6.615-.305-2.866,1.532-3.322,6.464-6.463,7.306-2.937.789-6.613-5.639-8.529-3.274-2.434,3,2.442,7.619,1.915,11.452-.187,1.36-3.926.39-3.74,1.755.634,4.669,5.531,8.223,5.728,12.933.115,2.75-2.515,5.288-4.914,6.643-1.1.62-2.267-2.939-3.173-2.064a18.884,18.884,0,0,0-5.573,10.512c-.77,5.317,1.146,10.689,1.718,16.037Z" transform="translate(-59.647 -306.226)" fill="#c9c9c9" stroke="#fff" stroke-linejoin="bevel" stroke-width="2.577" fill-rule="evenodd"/>
</svg>
