<svg xmlns="http://www.w3.org/2000/svg" width="102.318" height="79.242" viewBox="0 0 102.318 79.242">
  <path id="path70" d="M476.65,293.51c-2.392.69-5.949-1.965-7.468.022-2.086,2.728,1.791,7.716-.438,10.33-1.882,2.205-5.949,1.326-8.665.329-1.945-.714-1.818-5.329-3.845-4.917-5.911,1.2-11.127,5.065-15.789,8.918-1.443,1.193,4-1.482,5.579-.479,3.291,2.1,7.869,4.983,7.646,8.9-.194,3.426-6.965,2.674-8.486,5.748-.762,1.539,3.809.156,4.918,1.463,2.2,2.591,1.976,6.765,4.232,9.3,1.141,1.284,4.787-.6,5.017,1.109.36,2.672-5.141,4.672-3.914,7.069,1.476,2.886,7.361.466,9.15,3.167,1.261,1.9-3.238,3.933-2.949,6.207.163,1.279,3.884-.729,3.8.557-.125,1.945-5.583,2.874-4.108,4.141,3.833,3.289,9.574,6.182,14.383,4.674,3.007-.943-1.686-7.687.909-9.475,3.539-2.438,8.909,1.642,12.864-.02,3.055-1.284,3.3-6.1,6.052-7.944,2.151-1.443,5.471.131,7.657-1.254.879-.557-1.934-2.654-.951-3,3.159-1.112,6.757.44,10.042-.208,1-.2,1.187-2.515,2.152-2.195,4.369,1.453,7.533,5.748,11.987,6.894,1.223.314-1-2.974-.06-3.821.893-.8,3.375,1.9,3.528.7.674-5.3-3.5-10.966-1.577-15.943,1.427-3.7,7.524-3.172,10.108-6.162,1.4-1.625,2.1-4.739.771-6.418-2.22-2.8-7.126-2.127-9.595-4.7-1.193-1.245,1.566-4.284.11-5.2-3.479-2.192-8.892.232-12.1-2.35-1.958-1.577,1.8-6.107-.23-7.58-3.732-2.7-9.471-.367-13.582-2.437-1.537-.774.42-5.319-1.272-5.034C493.461,285.429,485.486,290.959,476.65,293.51Z" transform="translate(-438.891 -282.587)" fill="#c9c9c9" stroke="#fff" stroke-linejoin="bevel" stroke-width="2.587" fill-rule="evenodd"/>
</svg>
