<svg xmlns="http://www.w3.org/2000/svg" width="447.215" height="364.122" viewBox="0 0 447.215 364.122">
  <path id="path68" d="M654.19,460.45m0,0c2.726-3.519.6-9.835-2.378-13.136-2.213-2.453-7.333,1.591-9.9-.483-2.457-1.983-3.081-6.218-2.143-9.233,1.254-4.029,6.132-6.009,8.053-9.759,1.592-3.107.334-7.3,2.2-10.246a5.427,5.427,0,0,1,5.527-1.976c1.474.378.771,4.255,2.27,3.974,2.948-.555,4.146-4.663,6.948-5.723,4.443-1.683,10,.2,14.076-2.247,2.505-1.5.592-6.921,3.239-8.147,2.7-1.25,5.558,3.05,8.512,2.7a4.141,4.141,0,0,0,3.122-4.086c-.268-2.986-5.823-5.434-4.2-7.955,3.511-5.459,10.822-7.171,16.231-10.753.009-3.809-1.183-7.816.027-11.421.484-1.443,3.792-.079,4.315-1.507l3.008-8.208c.69-1.883-3.592-2.6-3.9-4.581-.207-1.328,2.36-1.682,2.72-2.974.416-1.489.588-3.622-.6-4.6-4-3.266-10.245-3.35-13.754-7.138-1.49-1.609,1.561-4.335,1.136-6.482-.221-1.116-.856,3.439-1.853,2.881-1.11-.622,1.305-3.233.177-3.818-3.653-1.895-8.407-.607-12.123-2.384-3.257-1.557-8.06-3.646-8.041-7.257.014-2.748,6.838.878,8.091-1.564.991-1.932-6.192-1.525-5.458-3.567.864-2.4,6.083.25,7.433-1.919s-2.452-5.089-1.584-7.483c.525-1.448,5,.742,4.559-.732-.593-2-6.143-.786-5.605-2.8.76-2.847,5.052-3.047,7.579-4.569.168-1.966,2.127-4.787.5-5.89-4.6-3.116-10.684-3.107-16.036-4.628-.99-.281-3.466.133-2.993-.782,1.026-1.983,4.913-1.755,5.429-3.924.351-1.479-4.131-.8-3.938-2.3.22-1.721,3.547-1.107,4.554-2.514,2.351-3.287,5.481-6.974,5.108-10.995-.282-3.042-5.954-3.3-6.7-6.267-1.272-5.07,2.231-10.518,1.2-15.644-.632-3.129-2.7-7.272-5.878-7.555-3.6-.321-5.292,5.875-8.895,6.233-3.282.326-5.547-4.117-8.826-4.476-2.536-.279-4.616,2.844-7.164,2.708-2-.107-4.459-1.426-5-3.359-.643-2.284,3.183-4.664,2.137-6.789-1.117-2.27-5.263-1.158-6.973-3.027-.806-.88,2.1-2.822,1.07-3.417-3.808-2.207-9.1-.933-12.776-3.366-1.267-.839,1.717-3.126.978-4.448-1.108-1.982-6.263-1.682-5.623-3.86.861-2.928,6.32-1.857,8.04-4.37.994-1.453-2.206-3.386-1.6-5.039.444-1.214,3.019.157,3.777-.885,1.208-1.661,1.981-4.116,1.26-6.038-1.234-3.292-5.754-4.812-6.619-8.22-.684-2.7,3.045-5.236,2.5-7.962-.735-3.683-6.138-5.8-5.993-9.554.111-2.887,4.39-3.761,6.586-5.64-2.96-.92-6.553-.713-8.883-2.755-2.859-2.5-2.687-7.495-5.6-9.937-1.914-1.606-5.591.694-7.43-.992-3.478-3.189-3.584-9.083-7.054-12.279-1.592-1.467-4.568-1.186-6.5-.2-1.308.663-.006,4.783-1.35,4.193-3.459-1.517-4.589-6.251-7.816-8.216-1.378-.839-4.18-.969-4.83.515-1.3,2.962,2.435,7.233.349,9.7-2.9,3.434-9.358,1.7-12.6,4.818-1.312,1.257,3.117,3.1,2.547,4.83-.892,2.707-3.262,6.023-6.115,5.992-5.609-.066-10.534-8.6-15.626-6.249-4.067,1.879,1.918,9.378.042,13.449-.815,1.773-4.294-2.274-5.779-1-1.793,1.533.308,5.168-1.2,6.98-1.422,1.7-4.742.516-6.341,2.058-.842.813,1.776,3.29.616,3.467-3.933.6-7.851-2.176-11.808-1.759-3.267.344-6.364,5.845-9.049,3.944-3.245-2.3,1.15-9.332-1.99-11.763-2.205-1.7-3.889,4.977-6.678,5.05-2.185.056-2.342-4.988-4.518-4.764-2.531.262-2.56,5.15-5.038,5.75-1.564.378-2-2.532-3-3.8-2.1,1.032-5.982.78-6.3,3.1-.7,5.093,5.971,10.285,3.815,14.955-1.433,3.1-7.493-3.249-10.193-1.153s1.546,8.519-1.449,10.188c-2.747,1.53-5.026-4.131-8.081-4.875-1.272-.309-3.374.8-3.328,2.105.141,4.016,3.582,7.443,3.789,11.458.239,4.619,1.446,11.246-2.5,13.652-5.256,3.2-12.575-2.7-18.457-.872-3.189.989-2.262,7.838-5.566,8.333-4.7.7-8.429-4.917-13.142-5.531-1.253-.163.2,3.1-.914,3.691-2.429,1.295-5.438,1.381-8.181,1.158-6.277-.51-12.448-1.992-18.606-3.333-2.5-.544-4.793-2.748-7.308-2.312-2.929.507-6.441,2.087-7.477,4.876-1.156,3.113,4.007,7.081,2.041,9.758-1.647,2.243-5.756-2.519-8.253-1.294-1.477.724,2.338,3.841,1.029,4.844-4.628,3.548-11.605,3.1-16.153,6.757-2.362,1.9-1.047,6.258-2.962,8.616-1.087,1.339-3.547,2.1-5.03,1.228-2.691-1.59-2.6-8.349-5.609-7.517-5.785,1.6-7.364,10.2-12.856,12.63-4.934,2.181-11.009,1.712-16.2.217-1.606-.462,1-5.968-.361-5-5.289,3.77-7.332,11.357-13.007,14.529-3.9,2.177-9.144-1.133-13.39.238-4.389,1.417-9.31,3.7-11.443,7.787-1.992,3.821,2,8.832.632,12.922-.494,1.481-3.372-2.769-4.416-1.6-1.873,2.088.643,6.554-1.577,8.278-2.075,1.611-5.44-2.079-7.823-.98-2.18,1.006-2.391,4.17-3.589,6.257,1.539,3.018,4.149,5.7,4.613,9.057.155,1.124-2.769-1.222-3.406-.279-1.9,2.814-6.216,8.7-2.985,9.746,7.918,2.555,16.5-3.02,24.811-2.706,1.69.064,4.3,2.344,3.4,3.78-1.32,2.107-5.789.1-7.148,2.184-.873,1.339,2.386,2.217,3.832,2.9,5.69,2.677,11.244,6.285,17.478,7.13,3.592.487,7.109-4.952,10.353-3.344,4.775,2.367,4.7,10.268,9.237,13.061,2.882,1.772,10.522-4.537,10.074-1.188l-1.084,8.1c-.642,4.8,9.137,3.256,13.852,4.341,1.506.347,4.129-1.541,4.632-.086.658,1.9-3.263,3.4-2.8,5.362l3.311,13.993c.4,1.7-4.687-1.833-5.236-.177-3.663,11.054-6.51,22.767-6.1,34.41.088,2.523,7.484-.711,7.362,1.814-.143,2.949-5.711,2.232-7.669,4.443-1.719,1.941-.31,6.348-2.725,7.288-1.979.77-2.471-4.511-4.594-4.429-3.836.149-8.643,1.575-10.39,5l-5.006,9.8c-.608,1.19.743,3.161,2.05,3.452,3.091.688,8.137-3.758,9.462-.885,1.253,2.717-7.847.191-8.421,3.129-.625,3.2,7.424,4.361,6.353,7.439-.983,2.828-11.662-1.229-9,.144l16.337,8.41c7.208,3.711-4.5,15.988-3.678,24.062.2,2.023,5.043-1.782,6.1-.048,1.77,2.9.069,6.8.1,10.2,4.091-1.458,7.941-4.613,12.271-4.371,2.115.118,1.464,5.172,3.582,5.266,2.371.106,2.835-4.694,5.2-4.869,2.691-.2,5.358,1.876,7.067,3.964.635.776-2.76,1.792-1.914,2.336,2.395,1.541,5.65,2.7,8.361,1.814,2.19-.716,1.645-4.928,3.779-5.784,3.253-1.3,7.792,2.236,10.518.037,2.792-2.253-.011-7.863,2.431-10.487s7.145-4.93,10.307-3.217c2.83,1.533-.164,6.753,1.406,9.564.826,1.48,3.136,1.6,4.832,1.608,8.249.017,17.023,1.456,24.708-1.543,3.238-1.264,1.444-7.248,3.949-9.65a8.617,8.617,0,0,1,8.223-2.018c3.155,1.127,3.992,5.6,6.822,7.4,1.965,1.248,5.181-.3,6.866,1.3,1.032.981-2.13,3.079-1.158,4.12a5.909,5.909,0,0,0,6.034,1.105c2.8-1.09,3.824-5.154,6.688-6.058,1.893-.6,4.219,3.668,5.544,2.192,1.572-1.752-3.6-7.224-1.267-6.952,4.971.578,7.733,6.866,12.536,8.273,1.418.415.584-3.115,1.681-4.105.588-.53,1.55.33,2.324.5,1,.213,2,.4,2.989.641,4.312,1.044,8.491,3.507,12.919,3.214,2.326-.154,3.749-6.034,5.426-4.418,1.813,1.746-4.576,5.424-2.67,7.069,3.175,2.741,8.573-.025,12.506,1.424,1.77.653,1.641,4.864,3.488,4.47,1.707-.365-.831-3.753.08-5.24a16.762,16.762,0,0,1,6.679-5.788c3.525-1.823,9.588-.014,11.364-3.559,2.094-4.18-3.108-9.12-2.675-13.772.127-1.371,3.122.175,4.049-.841,2.185-2.392,1.442-9.449,4.56-8.587,7.108,1.965,10.043,11.384,16.737,14.466,2.254,1.038,4.5-5.391,6.4-3.8,3.86,3.227,2.242,10.359,5.76,13.956,1.443,1.475,4.714-.362,5.832-2.1,1.655-2.571-.984-7.106,1.356-9.064,2.582-2.161,7.768,1.92,10.09-.514,1.85-1.939-4.769-6.886-2.227-7.729,5.36-1.779,11.066,3.432,16.688,2.924,4.6-.415,8.086-5.765,12.7-5.563,4,.176,6.067,6.9,10.053,6.568,2.531-.211-.822-6.1,1.284-7.512,4.39-2.947,12.186.473,15.423-3.705Z" transform="translate(-267.233 -139.143)" fill="#c9c9c9" stroke="#fff" stroke-linejoin="bevel" stroke-width="2.588" fill-rule="evenodd"/>
  <path id="path70" d="M476.65,293.51c-2.392.69-5.949-1.965-7.468.022-2.086,2.728,1.791,7.716-.438,10.33-1.882,2.205-5.949,1.326-8.665.329-1.945-.714-1.818-5.329-3.845-4.917-5.911,1.2-11.127,5.065-15.789,8.918-1.443,1.193,4-1.482,5.579-.479,3.291,2.1,7.869,4.983,7.646,8.9-.194,3.426-6.965,2.674-8.486,5.748-.762,1.539,3.809.156,4.918,1.463,2.2,2.591,1.976,6.765,4.232,9.3,1.141,1.284,4.787-.6,5.017,1.109.36,2.672-5.141,4.672-3.914,7.069,1.476,2.886,7.361.466,9.15,3.167,1.261,1.9-3.238,3.933-2.949,6.207.163,1.279,3.884-.729,3.8.557-.125,1.945-5.583,2.874-4.108,4.141,3.833,3.289,9.574,6.182,14.383,4.674,3.007-.943-1.686-7.687.909-9.475,3.539-2.438,8.909,1.642,12.864-.02,3.055-1.284,3.3-6.1,6.052-7.944,2.151-1.443,5.471.131,7.657-1.254.879-.557-1.934-2.654-.951-3,3.159-1.112,6.757.44,10.042-.208,1-.2,1.187-2.515,2.152-2.195,4.369,1.453,7.533,5.748,11.987,6.894,1.223.314-1-2.974-.06-3.821.893-.8,3.375,1.9,3.528.7.674-5.3-3.5-10.966-1.577-15.943,1.427-3.7,7.524-3.172,10.108-6.162,1.4-1.625,2.1-4.739.771-6.418-2.22-2.8-7.126-2.127-9.595-4.7-1.193-1.245,1.566-4.284.11-5.2-3.479-2.192-8.892.232-12.1-2.35-1.958-1.577,1.8-6.107-.23-7.58-3.732-2.7-9.471-.367-13.582-2.437-1.537-.774.42-5.319-1.272-5.034C493.461,285.429,485.486,290.959,476.65,293.51Z" transform="translate(-267.233 -139.143)" fill="#c9c9c9" stroke="#fff" stroke-linejoin="bevel" stroke-width="2.587" fill-rule="evenodd"/>
</svg>
