<svg xmlns="http://www.w3.org/2000/svg" width="354.663" height="317.577" viewBox="0 0 354.663 317.577">
  <path id="path82" d="M177.47,209.57c-.336-.832-1.475-2.123-1.01-2.493,2.419-1.927,6.317-1,8.872-2.739,2.87-1.951,5.657-4.627,6.783-7.906,2.25-6.552-1.387-15.208,3-20.566,2.466-3.015,7.4,3.641,11.26,3.131,3.8-.5,6.082-5.324,9.869-5.913,1.42-.221-.356,3.669.976,4.207,3.618,1.46,9.163,3.892,11.672.907,6.485-7.715,5.838-19.556,11.186-28.1,1.161-1.854,4.687-1.365,6.567-.249,1.724,1.024.5,4.782,2.36,5.546a5.9,5.9,0,0,0,6.551-1.883c1.587-2.424-1.346-6.369.378-8.7,1.764-2.379,6.5-.755,8.339-3.074,2.183-2.751-1.231-10.58,2.263-10.288,4.678.391,5.013,8.117,8.564,11.191,2.663,2.305,6.227,5.627,9.569,4.506,5.4-1.81,9.386-6.969,12.308-11.855.892-1.492-3.036-2.954-2.472-4.6,1.089-3.173,6.056-4.261,6.648-7.56.577-3.217-5.615-6.5-3.646-9.1,2.544-3.364,8.364-1.3,12.411-2.492,5.528-1.631,10.474-5.745,16.228-5.954,3.374-.123,5.408,5.213,8.784,5.057,2.347-.109,1.869-5.435,4.2-5.651,7.03-.649,13.888,2.7,20.917,3.346,1.737.159,3.875.244,5.147-.946s-.192-4.1,1.253-5.057c1.3-.864,3.8,2.606,4.528,1.222,2.852-5.437.8-12.838,4.229-17.925,1.3-1.92,4.651,2.577,6.761,1.621,4.446-2.014,6.239-8.588,10.994-9.674,3.272-.748,5.39,4.345,8.637,5.179,1.283.33,2.188-1.53,3.389-2.083,11.825-5.443,24.8-8.725,35.664-15.9,2.532-1.672-.956-7.826,1.879-8.909,9.927-3.792,21.9.322,31.645-3.9,3.487-1.511,5.332-8.2,2.821-11.047-4.266-4.844-12.5-3.557-18.259-6.474-1.285-.651-2.7-2.512-2.061-3.8.8-1.628,3.964-.666,5.01-2.149.8-1.135.789-3.879-.579-4.14-2.66-.509-5.024,2.72-7.73,2.549-2.183-.138-5.611-1.211-5.62-3.4-.017-4.662,4.737-8.246,5.57-12.828.3-1.63-3-2.776-2.44-4.332.85-2.356,3.253-4.949,5.751-4.837,2.944.131,4.206,4.478,7,5.412,2.949.984,6.476-1.171,9.337.045,2.622,1.114,2.881,6.186,5.725,6.36,3.447.211,5.37-5.161,8.809-5.468,2.956-.264,5.2,5.054,7.959,3.982,2.418-.937-1.034-8.3,1.476-7.647,2.583.672-1.589,5.82-.07,8.016,1.361,1.969,5.023.45,6.927,1.9,1.049.8-.557,3.5.7,3.9,1.875.6,3.958-2.977,5.6-1.892,3.477,2.3,7.068,6.13,7.117,10.3.081,6.825-10.68,13.737-6.771,19.335,3.394,4.861,14.341-9.475,17.258-4.316,4.03,7.131-9.414,16.21-6.256,23.774-1.035,1.793-1.323,4.334-3.11,5.385-2.066,1.214-5.853-1.349-7.169.656-2.331,3.546.7,9.053-1.568,12.641-1.315,2.075-4.834,1.691-7.259,1.293a22.589,22.589,0,0,1-9.606-4.068c-.661-.488,1.925-2.153,1.105-2.213-2.871-.218-7.31-.975-8.489,1.656-1.443,3.225,3.933,6.647,3.221,10.109-.5,2.412-5.188,1.843-6.147,4.115-1.375,3.257.982,7.235-.074,10.608-.328,1.046-1.622-2.41-2.633-1.984-3.041,1.284-6.271,3.314-7.639,6.321-1.312,2.884,1.546,6.537.436,9.507-.878,2.352-4.672,2.577-5.792,4.827-.957,1.925-.616,4.456.178,6.457,5.5,13.855,10.971,27.858,18.537,40.7,1.024,1.738,4.462-.392,5.985.93,1.966,1.706,2.183,4.729,3.272,7.094-2.1,1.034-6,.782-6.315,3.1-.7,5.105,5.986,10.31,3.824,14.991-1.436,3.11-7.512-3.257-10.218-1.156s1.549,8.54-1.452,10.212c-2.754,1.534-5.038-4.141-8.1-4.886-1.275-.31-3.382.8-3.336,2.111.141,4.026,3.591,7.461,3.8,11.485.239,4.63,1.449,11.273-2.509,13.685-5.268,3.211-12.605-2.7-18.5-.874-3.2.992-2.268,7.857-5.58,8.353-4.71.706-8.449-4.928-13.174-5.545-1.256-.163.2,3.1-.916,3.7-2.435,1.3-5.452,1.384-8.2,1.161-6.292-.511-12.478-2-18.651-3.342-2.5-.545-4.8-2.755-7.326-2.318-2.936.508-6.457,2.092-7.495,4.888-1.159,3.12,4.017,7.1,2.046,9.782-1.651,2.248-5.77-2.525-8.273-1.3-1.481.726,2.344,3.85,1.031,4.856-4.639,3.556-11.633,3.107-16.192,6.773-2.367,1.9-1.05,6.273-2.969,8.637-1.09,1.342-3.555,2.109-5.042,1.23-2.7-1.594-2.606-8.369-5.623-7.535-5.8,1.6-7.382,10.227-12.887,12.661-4.946,2.186-11.036,1.716-16.236.218-1.609-.463,1-5.982-.362-5.011-5.3,3.779-7.35,11.384-13.039,14.564-3.905,2.182-9.166-1.136-13.422.239-4.4,1.421-9.332,3.707-11.47,7.806-2,3.83,2,8.853.633,12.953-.5,1.485-3.38-2.776-4.427-1.608-1.878,2.093.645,6.57-1.581,8.3-2.08,1.614-5.453-2.085-7.842-.982-2.185,1.008-2.4,4.18-3.6,6.272-2.137,1.23-4.149,4.663-6.412,3.689-2.893-1.25-1.447-7.318-4.42-8.361-2.161-.758-2.153,5.289-4.442,5.25-1.892-.033-.277-4.37-1.89-5.357-1.453-.886-3.325.769-4.988,1.155-1.757-3.027-2.49-6.967-5.275-9.081-2.609-1.979-7.487.322-9.581-2.195-1.271-1.527,2.667-3.57,4.645-3.743,2.421-.212,5.173,4.6,6.754,2.753s-3.745-3.833-3.738-6.261c0-1.252,2.807.843,3.76.031a4,4,0,0,0,.826-3.927A37.884,37.884,0,0,0,241.2,274.76c-.916-1.266-3.9-.135-4.413-1.613-.486-1.4,3.069-2.218,2.582-3.614-1-2.877-5.273-3.823-6.19-6.728-.4-1.274,3.05-.851,3.391-2.138a10.744,10.744,0,0,0-.793-7.643c-.629-1.151-3.928.47-3.853-.842.383-6.732,5.119-12.856,5.023-19.6-.046-3.209-2.249-7.422-5.409-7.97-6.481-1.122-12.834,3.261-19.4,3.659-1.8.109-4.388-.474-4.945-2.189-.922-2.839,3.539-6.83,1.352-8.858-4.083-3.788-10.488-4.143-16.026-4.754-3.222-.355-6.354,2.534-9.539,1.921-2.395-.461-3.671-3.216-5.506-4.822Z" transform="translate(-175.094 -0.215)" fill="#c9c9c9" stroke="#fff" stroke-linejoin="bevel" stroke-width="2.594" fill-rule="evenodd"/>
</svg>
