<svg xmlns="http://www.w3.org/2000/svg" width="577.457" height="535.193" viewBox="0 0 577.457 535.193">
  <path id="path62" d="M848.3,910.4c3.334-2.238,6.109-7.666,10-6.7,5.819,1.443,7.1,13.367,13.015,12.431,5.33-.843,1.083-11.871,5.221-15.325,4.256-3.551,11.162-4.5,16.417-2.738,5,1.68,5.6,13.631,10.551,11.807,6.86-2.528,4.851-14.435,10.174-19.438,3.178-2.989,9.469.416,12.908-2.271,4.823-3.77,4.323-12.874,9.839-15.518,6.393-3.065,15.466,4.657,21.278.59,4.786-3.352-1.963-13.713,2.608-17.336,3.508-2.781,8.14,7.316,12.254,5.547,4.354-1.872,2.038-9.846,5.426-13.15,2.865-2.8,7.885-5.077,11.523-3.415,3.135,1.431.435,7.461,2.794,9.979,3.365,3.6,8.3,5.647,13.049,6.948,2.433.666,5.687.461,7.454-1.331,2.817-2.857.756-10.76,4.75-11.055,7.293-.536,12.719,7.889,19.9,9.233,4.09.766,8.3-1.476,12.063-3.233,3.876-1.809,9.232-3.26,10.539-7.328,1.117-3.483-8.174-7.858-5.05-9.751,8.357-5.067,20.587.313,28.947-4.74,4.343-2.625.242-10.889,3.425-14.842,2.135-2.652,7.657.55,10.039-1.878a32.028,32.028,0,0,0,8.782-17.327c.521-3.6-1.3-8.932-4.84-9.791-3.706-.9-5.764,6.018-9.57,6.3-2.442.182,4.878-3.525,4.361-5.909-.906-4.165-9.748-6.287-7.856-10.107,3.28-6.618,14.211-6.012,18.739-11.835,2.129-2.739.969-7.883-1.517-10.3-3.752-3.655-13.284-.474-14.731-5.514-2.239-7.794,1.561-16.964,6.4-23.468,2.717-3.653,13.209,1.512,13.319-3.038.15-6.187-13.212-7.177-12.922-13.363.368-7.794,10.93-11.465,14.443-18.426,1.085-2.15-3.472-5.585-1.571-7.07,10.589-8.274,26.99-8.848,35.382-19.337,4.286-5.357-2.41-13.521-3.7-20.265-1.786-9.346-6.192-18.519-5.536-28,.485-7.006,9.884-12.2,8.815-19.143-1.035-6.718-12.788-8.107-14.05-14.784-.76-4.023,8.441,5.453,11.856,3.2,6.279-4.136,13.387-11.609,12.143-19.028-1.251-7.466-15.158-7.091-17.732-14.208-2.155-5.958,4.054-12.007,6.082-18.009-5.469-5.907-9.451-13.693-16.418-17.711-8.87-5.114-20.905-3.129-29.472-8.743-6.111-4.006-5.683-14.622-11.943-18.386-9.971-6-23.02-4.508-33.715-9.092-2.434-1.044-1.282-7.831-3.79-6.984l-13.841,4.671c-6.476,2.185-8.185-10.964-12.278-16.446-6.627-.849-13.944.5-19.893-2.543-4.253-2.173-3.938-14.012-8.165-11.785-6.6,3.478-4.182,14.682-8.66,20.654-1.435,1.914-7.613-1.885-7.182.474l1.4,7.624c.871,4.753-9.566,3.339-14.314,2.421-3.609-.694-5.766-4.574-8.649-6.856-5.972-3.886-14.847-5.225-17.928-11.647-2.249-4.691,5.076-9.484,5.307-14.676.1-2.181-2.8,5.175-4.852,4.424-6.458-2.367-10.184-9.8-16.6-12.295-3.887-1.517-9.835,4.185-12.5.964-2.858-3.456,5.648-10.231,2.342-13.251-4.024-3.681-11.428,2.749-16.363.431-5.283-2.48-6.506-10.03-11.256-13.424-5.024-3.592-11.034-6.659-17.211-6.913-9.044-.372-17.812,6.885-26.683,5.094-4.36-.879-2.913-8.892-6.3-11.77-8.743-7.426-19.433-12.217-29.15-18.32l-.073.142c-9.709,6.43-22.831,9.5-29.132,19.3-2.907,4.522,7.062,8.917,7.544,14.276.275,3.058-2.548,6.967-5.6,7.333-5.3.635-10.433-7.083-15.277-4.839-4.75,2.2-1.317,11.925-5.813,14.621-7.31,4.384-17.288,1.014-25.262,4.033-5.027,1.9-7.178,9.278-12.471,10.272-2.69.5-1.428-6.454-4.073-7.133-3.393-.871-8.044.58-9.921,3.546-3.349,5.295-1.093,12.813-3.95,18.39-3.449,6.73-12.2,10.284-14.455,17.516-1.684,5.411-.563,13.011,3.846,16.57,4.613,3.723,13.8-3.534,17.773.867,5.345,5.925,9.16,17.259,4.268,23.576-5.809,7.5-19.8,1.361-27.681,6.652-3.779,2.536,2.24,13.1-2.3,13.481-7.153.6-10.871-11.473-18.043-11.787-8.281-.363-14.532,9.24-22.793,9.985-10.091.91-20.333-8.44-29.952-5.248-4.563,1.514,7.316,10.392,4,13.872-4.168,4.368-13.474-2.956-18.109.923-4.2,3.513-1.62,10.841-2.432,16.267l.018-.244c1.63,4.8,7.263,9.92,4.889,14.4-2.56,4.829-14.562.119-15.443,5.514-1.157,7.081,11.976,10.982,11.578,18.143-1.2,21.628-16.246,41.305-16.088,62.968.05,6.752,14.881,5.036,16.635,11.555,1.386,5.151-9.607,7.026-10.208,12.326-.587,5.169,3.8,9.927,7.234,13.832,6.457,7.337,12.412,17.49,22,19.388,6.963,1.379,10.859-11.935,17.943-11.476,6.106.4,7.1,10.566,12.492,13.45,4.7,2.51,11.855-1.756,15.888,1.72,2.806,2.418,1.4,9.295-.973,10.322-2.421,1.051-12.806-.347-9.675.328,6.221,1.341,13.763-1.269,18.938,2.435,4.288,3.069,1.655,11.091,5.292,14.908a10.34,10.34,0,0,0,10.942,2.125c4.348-2.051,3.979-11.381,8.786-11.437,9.087-.107,17.495,5.814,24.93,11.04,1.555,1.092-3.234,5.633-1.337,5.542,11.352-.548,24.009-13.556,33.352-7.086,8.055,5.578-5.9,20.8-1.167,29.373,6.981,12.646,20.037,21.661,32.932,28.172,3.084,1.557,2.231-8.52,5.684-8.671,8.3-.364,15.518,7.8,23.817,7.375,6.447-.333,10.609-7.992,16.892-9.476,3-.707,7.385.623,8.56,3.468,1.219,2.953-5.215,6.3-3.43,8.949,2.625,3.9,9.536,2.218,13.053,5.335,2.692,2.386,4.629,6.376,4.189,9.946-.453,3.673-2.992,7.882-6.525,8.989-3.964,1.243-9.381-6.337-12.059-3.16-4.254,5.047.828,13.7-1.9,19.717-1.271,2.807-7.086.737-8.588,3.427-1.215,2.176,4.109,4.808,2.806,6.933-4.174,6.81-16.022,8.74-17.251,16.633-.746,4.794,10.675-2.142,14.536.8,2.535,1.93-3.509,7.544-1,9.509,6.266,4.906,16.144,2.922,22.678,7.463,2.74,1.9,1.425,6.522,2.136,9.783l.055.1Z" transform="translate(-579.344 -382.284)" fill="#c9c9c9" stroke="#fff" stroke-linejoin="bevel" stroke-width="2.583" fill-rule="evenodd"/>
</svg>
