<svg xmlns="http://www.w3.org/2000/svg" width="271.655" height="226.787" viewBox="0 0 271.655 226.787">
  <path id="path64" d="M1318.1,510.85c-2.75-.714-8.144.719-8.256-2.138l-.362-9.213c-.137-3.5-6.726-2.6-9.084-5.172-3.3-3.605-2.852-10.809-7.335-12.735-5.656-2.43-12.405,3.166-18.378,1.687-3.953-.979-5.109-6.911-8.886-8.442-1.9-.767-3.538,2.76-5.577,2.583-1.288-.11-.861-3.4-2.144-3.258-9.345,1.009-18.128,7.513-27.464,6.44-3.645-.417-1.354-8.221-4.5-10.114-3.392-2.042-7.9.176-11.859.268-1.191,3.045-.511,8.043-3.573,9.134-3.81,1.358-7.6-4.592-11.556-3.734-2.068.448.88,4.826-.582,6.371-2.692,2.847-8.248,2.083-10.461,5.322-1.211,1.775,3.271,3.669,2.871,5.782-.377,2-3.811,2.055-4.7,3.889-.7,1.451.321,3.214.479,4.824-3.976.829-8.036,3.645-11.93,2.487-3.166-.942-3.5-5.826-6.112-7.849a2.692,2.692,0,0,0-3.423.466c-1.462,2.1.268,6.376-2.062,7.423-2.688,1.209-7.492-5.529-8.422-2.715-1.274,3.864,5.285,6.71,5.774,10.753.254,2.094-1.818,4.611-3.882,4.985-8.66,1.574-17.944-1.932-26.4.517-2.184.631,3.254,4.277,2.448,6.419-1.443,3.844-4.215,8.7-8.282,9.1-3.107.311-2.4-6.721-5.354-7.749-4.916-1.716-11.125,3.09-15.613.436-3.022-1.787,2.1-10.216-1.4-10.5-4.023-.332-6.845,5.747-7.222,9.794-.43,4.626,5.948,8.4,5.094,12.964-.565,3.011-6.164,1.715-8.263,3.937-2.872,3.037-2.723,8.408-5.937,11.081-1.6,1.333-4.112-.677-6.167-1.015-4.421.857-12.089-1.8-13.261,2.573l-2.5,9.352c-.381,1.422-2.492-1.549-3.739-2.32-1.932,3.38-6.082,6.253-5.8,10.142.468,6.321,6.567,11.109,7.816,17.325.388,1.935-5.142,4.071-3.35,4.875,3.509,1.576,9.15-4.314,11.468-1.231,2.6,3.461-.228,9.253-2.828,12.716-1.673,2.226-6.406-.334-8.125,1.861-1.87,2.388,1.285,6.645-.477,9.12-1.234,1.734-5.034-1.21-6.35.465-1.174,1.495,1.744,3.562,1.688,5.473-.035,1.223-2.916,2.382-1.942,3.116,1.949,1.468,4.9,1.49,7.256.884,4.918-1.263,8.834-6.9,13.875-6.325,3.115.358,3.871,5.293,4.308,8.417.5,3.572-3.4,7.575-1.619,10.7,1.119,1.966,4.227-3.495,6.266-2.54,2.926,1.37,2.468,6.876,5.482,8.038,4.1,1.583,8.793-1.328,13.161-.844,1.757.194,4.009,1.11,4.511,2.815.822,2.786-3.23,6.669-1.125,8.662,2.191,2.074,6.225-2.563,8.941-1.265,3.892,1.861,4.395,8.973,8.643,9.68,4.773.793,8.4-5.6,13.216-6.034,1.744-.159,1.069,3.763,2.612,4.6,2.39,1.294,6.515-1.053,8.06,1.192,1.574,2.285-3.592,6.285-1.585,8.195,3.438,3.27,10.234.27,13.787,3.41,5.009,4.426,6.6,11.666,9.9,17.5,3.456-2.084,5.7,4.114,12.324-2.434,6.272-6.2,7.774-16.977,15.214-21.684,6.243-3.95,17.048,3.574,22.044-1.884,6.468-7.066,3.707-18.854,5.559-28.28.3-1.509.915-3.233,14.385-5.134,2.407-.34,4.619,2.69,6.985,2.128a18.083,18.083,0,0,0,9.831-6.128c4.053-5.149,7.552-11.154,8.843-17.6.887-4.427-4.4-11.257-2.472-14.152s5.191-5.249,5.785-8.677c1.589-9.181-1.474-18.87.567-27.957.787-3.505,5.757-4.587,7.461-7.742.87-1.612-1.918-4.646-.306-5.5,12.55-6.683,27.584-8.079,39.718-15.495,4.241-2.593,6.2-8.248,7.153-13.152.594-3.056-3.72-7.174-2.868-8.887Z" transform="translate(-1050.641 -468.44)" fill="#c9c9c9" stroke="#fff" stroke-linejoin="bevel" stroke-width="2.581" fill-rule="evenodd"/>
</svg>
