<svg xmlns="http://www.w3.org/2000/svg" width="35" height="35" viewBox="0 0 35 35">
  <path id="_94c3059c756416aee471d9664a926b17" data-name="94c3059c756416aee471d9664a926b17" d="M19.5,9.875a.875.875,0,0,0-.875.875v8.21l-4.735,2.384A.875.875,0,0,0,14.282,23a.852.852,0,0,0,.393-.094l5.218-2.625a.875.875,0,0,0,.482-.781V10.75A.875.875,0,0,0,19.5,9.875ZM19.5,2A17.5,17.5,0,1,0,37,19.5,17.5,17.5,0,0,0,19.5,2Zm0,33.25A15.75,15.75,0,1,1,35.25,19.5,15.75,15.75,0,0,1,19.5,35.25Z" transform="translate(-2 -2)"/>
</svg>
