<svg xmlns="http://www.w3.org/2000/svg" width="46.667" height="35" viewBox="0 0 46.667 35">
  <path id="_044c504e250bf3ca5c3ef8a08a85f13c" data-name="044c504e250bf3ca5c3ef8a08a85f13c" d="M39.885,22.75a5.841,5.841,0,0,0-5.2-5.994A12.633,12.633,0,0,0,9.75,19.639c0,.373.019.753.058,1.147A10.69,10.69,0,0,0,11.694,42h26.25a9.723,9.723,0,0,0,1.941-19.25ZM37.944,40.056H11.694a8.746,8.746,0,0,1-.713-17.463l1.061-.086-.181-1.048A10.635,10.635,0,0,1,22.389,8.944a10.647,10.647,0,0,1,10.535,8.927l.141.847.857-.035a.489.489,0,0,0,.133-.017,3.893,3.893,0,0,1,3.889,3.889,3.849,3.849,0,0,1-.088.812l-.228,1.066,1.084.106a7.777,7.777,0,0,1-.767,15.517Z" transform="translate(-1 -7)"/>
</svg>
