<svg xmlns="http://www.w3.org/2000/svg" width="62.586" height="62.586" viewBox="0 0 62.586 62.586">
  <path id="Icon_akar-instagram-fill" data-name="Icon akar-instagram-fill" d="M19.892,1.688c3.337-.154,4.4-.188,12.9-.188s9.564.037,12.9.188a23.03,23.03,0,0,1,7.6,1.454,16.019,16.019,0,0,1,9.149,9.152,23.015,23.015,0,0,1,1.457,7.6c.154,3.343.188,4.407.188,12.9s-.037,9.564-.188,12.9a22.942,22.942,0,0,1-1.457,7.6,15.976,15.976,0,0,1-9.149,9.152A23.015,23.015,0,0,1,45.7,63.9c-3.34.154-4.4.188-12.9.188s-9.564-.037-12.9-.188a22.942,22.942,0,0,1-7.6-1.457,15.353,15.353,0,0,1-5.545-3.607,15.339,15.339,0,0,1-3.61-5.542,23.1,23.1,0,0,1-1.454-7.6c-.154-3.343-.188-4.407-.188-12.9s.037-9.564.188-12.9a23.03,23.03,0,0,1,1.454-7.6A15.351,15.351,0,0,1,6.754,6.752a15.339,15.339,0,0,1,5.539-3.61,23.1,23.1,0,0,1,7.6-1.454ZM45.439,7.321c-3.3-.151-4.29-.182-12.645-.182s-9.345.031-12.645.182A17.3,17.3,0,0,0,14.336,8.4a9.717,9.717,0,0,0-3.6,2.338,9.707,9.707,0,0,0-2.338,3.6,17.3,17.3,0,0,0-1.078,5.812c-.151,3.3-.182,4.29-.182,12.645s.031,9.345.182,12.645A17.3,17.3,0,0,0,8.4,51.251a9.714,9.714,0,0,0,2.338,3.6,9.714,9.714,0,0,0,3.6,2.338,17.3,17.3,0,0,0,5.812,1.078c3.3.151,4.287.182,12.645.182s9.345-.031,12.645-.182a17.3,17.3,0,0,0,5.812-1.078,10.335,10.335,0,0,0,5.937-5.937,17.3,17.3,0,0,0,1.078-5.812c.151-3.3.182-4.29.182-12.645s-.031-9.345-.182-12.645a17.3,17.3,0,0,0-1.078-5.812,9.717,9.717,0,0,0-2.338-3.6,9.709,9.709,0,0,0-3.6-2.338,17.3,17.3,0,0,0-5.812-1.078ZM28.8,42.44a10.441,10.441,0,1,0-6.441-9.646A10.438,10.438,0,0,0,28.8,42.44ZM21.42,21.42a16.085,16.085,0,1,1,0,22.747,16.085,16.085,0,0,1,0-22.747ZM52.445,19.1a3.8,3.8,0,1,0-5.3-.077A3.8,3.8,0,0,0,52.445,19.1Z" transform="translate(-1.5 -1.5)" fill="#f3b664"/>
</svg>
