<svg xmlns="http://www.w3.org/2000/svg" width="51.155" height="51.155" viewBox="0 0 51.155 51.155">
  <path id="Icon_akar-linkedin-fill" data-name="Icon akar-linkedin-fill" d="M22,20.825h9.5v4.732c1.368-2.721,4.878-5.167,10.149-5.167,10.106,0,12.5,5.417,12.5,15.357V54.155H43.924V38.011c0-5.66-1.368-8.852-4.852-8.852-4.832,0-6.839,3.44-6.839,8.85V54.155H22V20.825ZM4.458,53.72H14.689V20.39H4.458V53.72Zm11.7-44.2a6.471,6.471,0,0,1-1.926,4.609A6.575,6.575,0,0,1,3,9.522,6.482,6.482,0,0,1,4.926,4.911a6.617,6.617,0,0,1,9.3,0A6.492,6.492,0,0,1,16.155,9.522Z" transform="translate(-3 -3)" fill="#f3b664"/>
</svg>
