<svg xmlns="http://www.w3.org/2000/svg" width="53.958" height="35" viewBox="0 0 53.958 35">
  <path id="_002321f242799e8a5cac8a3bbaa5994a" data-name="002321f242799e8a5cac8a3bbaa5994a" d="M53.229,101.186a.729.729,0,0,0,.729-.729V93.488a3.547,3.547,0,0,0-3.543-3.543H3.542A3.546,3.546,0,0,0,0,93.488v6.97a.729.729,0,0,0,.729.729,6.259,6.259,0,1,1,0,12.517.729.729,0,0,0-.729.729v6.97a3.546,3.546,0,0,0,3.542,3.543H50.415a3.547,3.547,0,0,0,3.543-3.543v-6.97a.729.729,0,0,0-.729-.729,6.259,6.259,0,0,1,0-12.517Zm-7.717,6.259a7.728,7.728,0,0,0,6.988,7.683V121.4a2.087,2.087,0,0,1-2.084,2.084H18.369v-3.4a.729.729,0,0,0-1.458,0v3.4H3.542A2.086,2.086,0,0,1,1.458,121.4v-6.275a7.717,7.717,0,0,0,0-15.366V93.488A2.086,2.086,0,0,1,3.542,91.4H16.91v3.4a.729.729,0,1,0,1.458,0V91.4H50.415A2.087,2.087,0,0,1,52.5,93.488v6.275A7.728,7.728,0,0,0,45.512,107.445Zm-27.143-2.221v4.443a.729.729,0,0,1-1.458,0v-4.443a.729.729,0,0,1,1.458,0Zm0,7.431V117.1a.729.729,0,0,1-1.458,0v-4.443a.729.729,0,0,1,1.458,0Zm0-14.862v4.443a.729.729,0,0,1-1.458,0V97.793a.729.729,0,0,1,1.458,0Zm21.57.629a.729.729,0,0,1-.729.729H26.328a.729.729,0,1,1,0-1.458H39.21A.729.729,0,0,1,39.939,98.421Zm0,6.016a.729.729,0,0,1-.729.729H26.328a.729.729,0,0,1,0-1.458H39.21A.729.729,0,0,1,39.939,104.437Zm0,6.016a.729.729,0,0,1-.729.729H26.328a.729.729,0,1,1,0-1.458H39.21A.729.729,0,0,1,39.939,110.453Zm0,6.016a.729.729,0,0,1-.729.729H26.328a.729.729,0,1,1,0-1.458H39.21A.729.729,0,0,1,39.939,116.468Z" transform="translate(0 -89.945)"/>
</svg>
