<svg xmlns="http://www.w3.org/2000/svg" width="76.926" height="51.309" viewBox="0 0 76.926 51.309">
  <path id="Icon_akar-youtube-fill" data-name="Icon akar-youtube-fill" d="M75.314,14.043a8.929,8.929,0,0,0-2.455-4.07,9.775,9.775,0,0,0-4.288-2.378C62.552,6.008,38.439,6.008,38.439,6.008A245.56,245.56,0,0,0,8.346,7.515,10.127,10.127,0,0,0,4.058,9.95,9.283,9.283,0,0,0,1.565,14.04,93.227,93.227,0,0,0,0,31.647,93.059,93.059,0,0,0,1.565,49.254a9.059,9.059,0,0,0,2.484,4.067,9.92,9.92,0,0,0,4.3,2.381c6.1,1.583,30.093,1.583,30.093,1.583a246.125,246.125,0,0,0,30.132-1.506A9.775,9.775,0,0,0,72.859,53.4a8.909,8.909,0,0,0,2.452-4.07,90.952,90.952,0,0,0,1.606-17.61,85.181,85.181,0,0,0-1.6-17.681ZM30.774,42.62V20.677L50.836,31.65,30.774,42.62Z" transform="translate(0.001 -5.993)" fill="#e6a54c"/>
</svg>
